<svg xmlns="http://www.w3.org/2000/svg" xmlns:xlink="http://www.w3.org/1999/xlink" width="840" height="385.65"><rect width="840" height="385.65" rx="5" ry="5" class="a"/><svg y="0%" x="0%"><circle cx="20" cy="20" r="6" fill="#ff5f58"/><circle cx="40" cy="20" r="6" fill="#ffbd2e"/><circle cx="60" cy="20" r="6" fill="#18c132"/></svg><svg height="325.65" viewBox="0 0 80 32.565" width="800" x="15" xmlns="http://www.w3.org/2000/svg" xmlns:xlink="http://www.w3.org/1999/xlink" y="50"><style>@keyframes n{0%{transform:translateX(0)}.93%{transform:translateX(-80px)}4.97%{transform:translateX(-160px)}5.31%{transform:translateX(-240px)}5.52%{transform:translateX(-320px)}5.8%{transform:translateX(-400px)}6.23%{transform:translateX(-480px)}6.76%{transform:translateX(-560px)}7.08%{transform:translateX(-640px)}8.99%{transform:translateX(-720px)}9.33%{transform:translateX(-800px)}9.78%{transform:translateX(-880px)}10.12%{transform:translateX(-960px)}10.85%{transform:translateX(-1040px)}11.43%{transform:translateX(-1120px)}12.09%{transform:translateX(-1200px)}13.15%{transform:translateX(-1280px)}13.9%{transform:translateX(-1360px)}14.39%{transform:translateX(-1440px)}14.82%{transform:translateX(-1520px)}15.27%{transform:translateX(-1600px)}16.06%{transform:translateX(-1680px)}16.61%{transform:translateX(-1760px)}17.51%{transform:translateX(-1840px)}19.01%{transform:translateX(-1920px)}19.67%{transform:translateX(-2000px)}23.08%{transform:translateX(-2080px)}25.67%{transform:translateX(-2160px)}26.18%{transform:translateX(-2240px)}26.65%{transform:translateX(-2320px)}26.84%{transform:translateX(-2400px)}27.67%{transform:translateX(-2480px)}28.68%{transform:translateX(-2560px)}29.06%{transform:translateX(-2640px)}29.43%{transform:translateX(-2720px)}29.68%{transform:translateX(-2800px)}30.51%{transform:translateX(-2880px)}30.94%{transform:translateX(-2960px)}31.23%{transform:translateX(-3040px)}31.68%{transform:translateX(-3120px)}35.18%{transform:translateX(-3200px)}36.01%{transform:translateX(-3280px)}36.95%{transform:translateX(-3360px)}37.85%{transform:translateX(-3440px)}38.47%{transform:translateX(-3520px)}38.81%{transform:translateX(-3600px)}39%{transform:translateX(-3680px)}40.3%{transform:translateX(-3760px)}44.33%{transform:translateX(-3840px)}44.35%{transform:translateX(-3920px)}44.66%{transform:translateX(-4000px)}48.7%{transform:translateX(-4160px)}49.61%{transform:translateX(-4320px)}50.76%{transform:translateX(-4480px)}52.09%{transform:translateX(-4560px)}53.04%{transform:translateX(-4640px)}54.87%{transform:translateX(-4800px)}54.88%{transform:translateX(-4880px)}58.92%{transform:translateX(-4960px)}59.43%{transform:translateX(-5040px)}59.92%{transform:translateX(-5120px)}60.24%{transform:translateX(-5200px)}62.66%{transform:translateX(-5280px)}63.08%{transform:translateX(-5360px)}63.43%{transform:translateX(-5440px)}63.94%{transform:translateX(-5520px)}64.89%{transform:translateX(-5600px)}65.51%{transform:translateX(-5680px)}67.95%{transform:translateX(-5840px)}70.35%{transform:translateX(-6000px)}70.67%{transform:translateX(-6160px)}71.03%{transform:translateX(-6240px)}71.35%{transform:translateX(-6320px)}71.86%{transform:translateX(-6400px)}72.76%{transform:translateX(-6480px)}73.4%{transform:translateX(-6560px)}73.74%{transform:translateX(-6640px)}74.13%{transform:translateX(-6720px)}75.64%{transform:translateX(-6800px)}75.66%{transform:translateX(-6880px)}75.71%{transform:translateX(-6960px)}79.75%{transform:translateX(-7040px)}to{transform:translateX(-7120px)}}.a{fill:#282d35}.f{fill:#a8cc8c;font-weight:700;white-space:pre}.g{fill:#b9c0cb}.g,.h,.i,.j,.k{white-space:pre}.h{fill:#71bef2;font-weight:700}.i,.j,.k{fill:#66c2cd}.j,.k{fill:#a8cc8c}.k{fill:#b9c0cb;font-weight:700}</style><g font-family="Monaco,Consolas,Menlo,'Bitstream Vera Sans Mono','Powerline Symbols',monospace" font-size="1.67"><defs><symbol id="1"><text y="1.67" class="f">user@pc</text><text x="7.014" y="1.67" class="g">:</text><text x="8.016" y="1.67" class="h">~</text><text x="9.018" y="1.67" class="g">$</text></symbol><symbol id="2"><text y="1.67" class="f">user@pc</text><text x="7.014" y="1.67" class="g">:</text><text x="8.016" y="1.67" class="h">~</text><text x="9.018" y="1.67" class="g">$</text><text x="11.022" y="1.67" class="g">node</text></symbol><symbol id="3"><text y="1.67" class="f">user@pc</text><text x="7.014" y="1.67" class="g">:</text><text x="8.016" y="1.67" class="h">~</text><text x="9.018" y="1.67" class="g">$</text><text x="11.022" y="1.67" class="g">node</text><text x="16.032" y="1.67" class="g">remark42-mongodb.js</text></symbol><symbol id="4"><text y="1.67" class="f">user@pc</text><text x="7.014" y="1.67" class="g">:</text><text x="8.016" y="1.67" class="h">~</text><text x="9.018" y="1.67" class="g">$</text><text x="11.022" y="1.67" class="g">node</text><text x="16.032" y="1.67" class="g">remark42-mongodb.js</text><text x="36.072" y="1.67" class="g">sites</text></symbol><symbol id="5"><text y="1.67" class="f">user@pc</text><text x="7.014" y="1.67" class="g">:</text><text x="8.016" y="1.67" class="h">~</text><text x="9.018" y="1.67" class="g">$</text><text x="11.022" y="1.67" class="g">node</text><text x="16.032" y="1.67" class="g">remark42-mongodb.js</text><text x="36.072" y="1.67" class="g">sites</text><text x="42.084" y="1.67" class="g">create</text></symbol><symbol id="6"><text y="1.67" class="f">user@pc</text><text x="7.014" y="1.67" class="g">:</text><text x="8.016" y="1.67" class="h">~</text><text x="9.018" y="1.67" class="g">$</text><text x="11.022" y="1.67" class="g">node</text><text x="16.032" y="1.67" class="g">remark42-mongodb.js</text><text x="36.072" y="1.67" class="g">sites</text><text x="42.084" y="1.67" class="g">create</text><text x="49.098" y="1.67" class="g">my-site</text></symbol><symbol id="7"><text y="1.67" class="i">Remark42</text><text x="9.018" y="1.67" class="i">MongoDB</text><text x="17.034" y="1.67" class="i">Server</text><text x="24.048" y="1.67" class="i">v0.1.0</text></symbol><symbol id="8"><text y="1.67" class="g">Loaded</text><text x="7.014" y="1.67" class="g">configuration</text><text x="21.042" y="1.67" class="g">file</text><text x="26.052" y="1.67" class="g">&apos;remark42-mongodb.json&apos;</text></symbol><symbol id="9"><text y="1.67" class="j">?</text><text x="2.004" y="1.67" class="k">Encryption</text><text x="13.026" y="1.67" class="k">key</text><text x="17.034" y="1.67" class="g">[input</text><text x="24.048" y="1.67" class="g">is</text><text x="27.054" y="1.67" class="g">hidden]</text></symbol><symbol id="10"><text y="1.67" class="j">?</text><text x="2.004" y="1.67" class="k">Encryption</text><text x="13.026" y="1.67" class="k">key</text><text x="17.034" y="1.67" class="g">[hidden]</text></symbol><symbol id="11"><text y="1.67" class="j">?</text><text x="2.004" y="1.67" class="k">Administrator</text><text x="16.032" y="1.67" class="k">email</text><text x="22.044" y="1.67" class="g">site.admin@</text></symbol><symbol id="12"><text y="1.67" class="j">?</text><text x="2.004" y="1.67" class="k">Administrator</text><text x="16.032" y="1.67" class="k">email</text><text x="22.044" y="1.67" class="g">site.admin@g</text></symbol><symbol id="13"><text y="1.67" class="j">?</text><text x="2.004" y="1.67" class="k">Administrator</text><text x="16.032" y="1.67" class="k">email</text><text x="22.044" y="1.67" class="g">site.admin@gm</text></symbol><symbol id="14"><text y="1.67" class="j">?</text><text x="2.004" y="1.67" class="k">Administrator</text><text x="16.032" y="1.67" class="k">email</text><text x="22.044" y="1.67" class="i">site.admin@gmail.com</text></symbol><symbol id="15"><text y="1.67" class="j">Site</text><text x="5.01" y="1.67" class="j">&apos;my-site&apos;</text><text x="15.03" y="1.67" class="j">created</text></symbol><symbol id="16"><text y="1.67" class="f">user@pc</text><text x="7.014" y="1.67" class="g">:</text><text x="8.016" y="1.67" class="h">~</text><text x="9.018" y="1.67" class="g">$</text><text x="11.022" y="1.67" class="g">exit</text></symbol><symbol id="a"><path fill="transparent" d="M0 0h80v15H0z"/></symbol><symbol id="b"><path fill="#6f7683" d="M0 0h1.102v2.171H0z"/></symbol></defs><path class="a" d="M0 0h80v32.565H0z"/><g style="animation-duration:24.800817s;animation-iteration-count:infinite;animation-name:n;animation-timing-function:steps(1,end)"><svg width="7200"><svg><use xlink:href="#a"/><use xlink:href="#b" x="-.004"/></svg><svg x="80"><use xlink:href="#a"/><use xlink:href="#b" x="10.996"/><use xlink:href="#1"/></svg><svg x="160"><use xlink:href="#a"/><use xlink:href="#b" x="11.996"/><text y="1.67" class="f">user@pc</text><text x="7.014" y="1.67" class="g">:</text><text x="8.016" y="1.67" class="h">~</text><text x="9.018" y="1.67" class="g">$</text><text x="11.022" y="1.67" class="g">n</text></svg><svg x="240"><use xlink:href="#a"/><use xlink:href="#b" x="12.996"/><text y="1.67" class="f">user@pc</text><text x="7.014" y="1.67" class="g">:</text><text x="8.016" y="1.67" class="h">~</text><text x="9.018" y="1.67" class="g">$</text><text x="11.022" y="1.67" class="g">no</text></svg><svg x="320"><use xlink:href="#a"/><use xlink:href="#b" x="13.996"/><text y="1.67" class="f">user@pc</text><text x="7.014" y="1.67" class="g">:</text><text x="8.016" y="1.67" class="h">~</text><text x="9.018" y="1.67" class="g">$</text><text x="11.022" y="1.67" class="g">nod</text></svg><svg x="400"><use xlink:href="#a"/><use xlink:href="#b" x="14.996"/><use xlink:href="#2"/></svg><svg x="480"><use xlink:href="#a"/><use xlink:href="#b" x="15.996"/><use xlink:href="#2"/></svg><svg x="560"><use xlink:href="#a"/><use xlink:href="#b" x="16.996"/><text y="1.67" class="f">user@pc</text><text x="7.014" y="1.67" class="g">:</text><text x="8.016" y="1.67" class="h">~</text><text x="9.018" y="1.67" class="g">$</text><text x="11.022" y="1.67" class="g">node</text><text x="16.032" y="1.67" class="g">r</text></svg><svg x="640"><use xlink:href="#a"/><use xlink:href="#b" x="17.996"/><text y="1.67" class="f">user@pc</text><text x="7.014" y="1.67" class="g">:</text><text x="8.016" y="1.67" class="h">~</text><text x="9.018" y="1.67" class="g">$</text><text x="11.022" y="1.67" class="g">node</text><text x="16.032" y="1.67" class="g">re</text></svg><svg x="720"><use xlink:href="#a"/><use xlink:href="#b" x="18.996"/><text y="1.67" class="f">user@pc</text><text x="7.014" y="1.67" class="g">:</text><text x="8.016" y="1.67" class="h">~</text><text x="9.018" y="1.67" class="g">$</text><text x="11.022" y="1.67" class="g">node</text><text x="16.032" y="1.67" class="g">rem</text></svg><svg x="800"><use xlink:href="#a"/><use xlink:href="#b" x="19.996"/><text y="1.67" class="f">user@pc</text><text x="7.014" y="1.67" class="g">:</text><text x="8.016" y="1.67" class="h">~</text><text x="9.018" y="1.67" class="g">$</text><text x="11.022" y="1.67" class="g">node</text><text x="16.032" y="1.67" class="g">rema</text></svg><svg x="880"><use xlink:href="#a"/><use xlink:href="#b" x="20.996"/><text y="1.67" class="f">user@pc</text><text x="7.014" y="1.67" class="g">:</text><text x="8.016" y="1.67" class="h">~</text><text x="9.018" y="1.67" class="g">$</text><text x="11.022" y="1.67" class="g">node</text><text x="16.032" y="1.67" class="g">remar</text></svg><svg x="960"><use xlink:href="#a"/><use xlink:href="#b" x="21.996"/><text y="1.67" class="f">user@pc</text><text x="7.014" y="1.67" class="g">:</text><text x="8.016" y="1.67" class="h">~</text><text x="9.018" y="1.67" class="g">$</text><text x="11.022" y="1.67" class="g">node</text><text x="16.032" y="1.67" class="g">remark</text></svg><svg x="1040"><use xlink:href="#a"/><use xlink:href="#b" x="22.996"/><text y="1.67" class="f">user@pc</text><text x="7.014" y="1.67" class="g">:</text><text x="8.016" y="1.67" class="h">~</text><text x="9.018" y="1.67" class="g">$</text><text x="11.022" y="1.67" class="g">node</text><text x="16.032" y="1.67" class="g">remark4</text></svg><svg x="1120"><use xlink:href="#a"/><use xlink:href="#b" x="23.996"/><text y="1.67" class="f">user@pc</text><text x="7.014" y="1.67" class="g">:</text><text x="8.016" y="1.67" class="h">~</text><text x="9.018" y="1.67" class="g">$</text><text x="11.022" y="1.67" class="g">node</text><text x="16.032" y="1.67" class="g">remark42</text></svg><svg x="1200"><use xlink:href="#a"/><use xlink:href="#b" x="24.996"/><text y="1.67" class="f">user@pc</text><text x="7.014" y="1.67" class="g">:</text><text x="8.016" y="1.67" class="h">~</text><text x="9.018" y="1.67" class="g">$</text><text x="11.022" y="1.67" class="g">node</text><text x="16.032" y="1.67" class="g">remark42-</text></svg><svg x="1280"><use xlink:href="#a"/><use xlink:href="#b" x="25.996"/><text y="1.67" class="f">user@pc</text><text x="7.014" y="1.67" class="g">:</text><text x="8.016" y="1.67" class="h">~</text><text x="9.018" y="1.67" class="g">$</text><text x="11.022" y="1.67" class="g">node</text><text x="16.032" y="1.67" class="g">remark42-m</text></svg><svg x="1360"><use xlink:href="#a"/><use xlink:href="#b" x="26.996"/><text y="1.67" class="f">user@pc</text><text x="7.014" y="1.67" class="g">:</text><text x="8.016" y="1.67" class="h">~</text><text x="9.018" y="1.67" class="g">$</text><text x="11.022" y="1.67" class="g">node</text><text x="16.032" y="1.67" class="g">remark42-mo</text></svg><svg x="1440"><use xlink:href="#a"/><use xlink:href="#b" x="27.996"/><text y="1.67" class="f">user@pc</text><text x="7.014" y="1.67" class="g">:</text><text x="8.016" y="1.67" class="h">~</text><text x="9.018" y="1.67" class="g">$</text><text x="11.022" y="1.67" class="g">node</text><text x="16.032" y="1.67" class="g">remark42-mon</text></svg><svg x="1520"><use xlink:href="#a"/><use xlink:href="#b" x="28.996"/><text y="1.67" class="f">user@pc</text><text x="7.014" y="1.67" class="g">:</text><text x="8.016" y="1.67" class="h">~</text><text x="9.018" y="1.67" class="g">$</text><text x="11.022" y="1.67" class="g">node</text><text x="16.032" y="1.67" class="g">remark42-mong</text></svg><svg x="1600"><use xlink:href="#a"/><use xlink:href="#b" x="29.996"/><text y="1.67" class="f">user@pc</text><text x="7.014" y="1.67" class="g">:</text><text x="8.016" y="1.67" class="h">~</text><text x="9.018" y="1.67" class="g">$</text><text x="11.022" y="1.67" class="g">node</text><text x="16.032" y="1.67" class="g">remark42-mongo</text></svg><svg x="1680"><use xlink:href="#a"/><use xlink:href="#b" x="30.996"/><text y="1.67" class="f">user@pc</text><text x="7.014" y="1.67" class="g">:</text><text x="8.016" y="1.67" class="h">~</text><text x="9.018" y="1.67" class="g">$</text><text x="11.022" y="1.67" class="g">node</text><text x="16.032" y="1.67" class="g">remark42-mongod</text></svg><svg x="1760"><use xlink:href="#a"/><use xlink:href="#b" x="31.996"/><text y="1.67" class="f">user@pc</text><text x="7.014" y="1.67" class="g">:</text><text x="8.016" y="1.67" class="h">~</text><text x="9.018" y="1.67" class="g">$</text><text x="11.022" y="1.67" class="g">node</text><text x="16.032" y="1.67" class="g">remark42-mongodb</text></svg><svg x="1840"><use xlink:href="#a"/><use xlink:href="#b" x="32.996"/><text y="1.67" class="f">user@pc</text><text x="7.014" y="1.67" class="g">:</text><text x="8.016" y="1.67" class="h">~</text><text x="9.018" y="1.67" class="g">$</text><text x="11.022" y="1.67" class="g">node</text><text x="16.032" y="1.67" class="g">remark42-mongodb.</text></svg><svg x="1920"><use xlink:href="#a"/><use xlink:href="#b" x="33.996"/><text y="1.67" class="f">user@pc</text><text x="7.014" y="1.67" class="g">:</text><text x="8.016" y="1.67" class="h">~</text><text x="9.018" y="1.67" class="g">$</text><text x="11.022" y="1.67" class="g">node</text><text x="16.032" y="1.67" class="g">remark42-mongodb.j</text></svg><svg x="2000"><use xlink:href="#a"/><use xlink:href="#b" x="34.996"/><use xlink:href="#3"/></svg><svg x="2080"><use xlink:href="#a"/><use xlink:href="#b" x="35.996"/><use xlink:href="#3"/></svg><svg x="2160"><use xlink:href="#a"/><use xlink:href="#b" x="36.996"/><text y="1.67" class="f">user@pc</text><text x="7.014" y="1.67" class="g">:</text><text x="8.016" y="1.67" class="h">~</text><text x="9.018" y="1.67" class="g">$</text><text x="11.022" y="1.67" class="g">node</text><text x="16.032" y="1.67" class="g">remark42-mongodb.js</text><text x="36.072" y="1.67" class="g">s</text></svg><svg x="2240"><use xlink:href="#a"/><use xlink:href="#b" x="37.996"/><text y="1.67" class="f">user@pc</text><text x="7.014" y="1.67" class="g">:</text><text x="8.016" y="1.67" class="h">~</text><text x="9.018" y="1.67" class="g">$</text><text x="11.022" y="1.67" class="g">node</text><text x="16.032" y="1.67" class="g">remark42-mongodb.js</text><text x="36.072" y="1.67" class="g">si</text></svg><svg x="2320"><use xlink:href="#a"/><use xlink:href="#b" x="38.996"/><text y="1.67" class="f">user@pc</text><text x="7.014" y="1.67" class="g">:</text><text x="8.016" y="1.67" class="h">~</text><text x="9.018" y="1.67" class="g">$</text><text x="11.022" y="1.67" class="g">node</text><text x="16.032" y="1.67" class="g">remark42-mongodb.js</text><text x="36.072" y="1.67" class="g">sit</text></svg><svg x="2400"><use xlink:href="#a"/><use xlink:href="#b" x="39.996"/><text y="1.67" class="f">user@pc</text><text x="7.014" y="1.67" class="g">:</text><text x="8.016" y="1.67" class="h">~</text><text x="9.018" y="1.67" class="g">$</text><text x="11.022" y="1.67" class="g">node</text><text x="16.032" y="1.67" class="g">remark42-mongodb.js</text><text x="36.072" y="1.67" class="g">site</text></svg><svg x="2480"><use xlink:href="#a"/><use xlink:href="#b" x="40.996"/><use xlink:href="#4"/></svg><svg x="2560"><use xlink:href="#a"/><use xlink:href="#b" x="41.996"/><use xlink:href="#4"/></svg><svg x="2640"><use xlink:href="#a"/><use xlink:href="#b" x="42.996"/><text y="1.67" class="f">user@pc</text><text x="7.014" y="1.67" class="g">:</text><text x="8.016" y="1.67" class="h">~</text><text x="9.018" y="1.67" class="g">$</text><text x="11.022" y="1.67" class="g">node</text><text x="16.032" y="1.67" class="g">remark42-mongodb.js</text><text x="36.072" y="1.67" class="g">sites</text><text x="42.084" y="1.67" class="g">c</text></svg><svg x="2720"><use xlink:href="#a"/><use xlink:href="#b" x="43.996"/><text y="1.67" class="f">user@pc</text><text x="7.014" y="1.67" class="g">:</text><text x="8.016" y="1.67" class="h">~</text><text x="9.018" y="1.67" class="g">$</text><text x="11.022" y="1.67" class="g">node</text><text x="16.032" y="1.67" class="g">remark42-mongodb.js</text><text x="36.072" y="1.67" class="g">sites</text><text x="42.084" y="1.67" class="g">cr</text></svg><svg x="2800"><use xlink:href="#a"/><use xlink:href="#b" x="44.996"/><text y="1.67" class="f">user@pc</text><text x="7.014" y="1.67" class="g">:</text><text x="8.016" y="1.67" class="h">~</text><text x="9.018" y="1.67" class="g">$</text><text x="11.022" y="1.67" class="g">node</text><text x="16.032" y="1.67" class="g">remark42-mongodb.js</text><text x="36.072" y="1.67" class="g">sites</text><text x="42.084" y="1.67" class="g">cre</text></svg><svg x="2880"><use xlink:href="#a"/><use xlink:href="#b" x="45.996"/><text y="1.67" class="f">user@pc</text><text x="7.014" y="1.67" class="g">:</text><text x="8.016" y="1.67" class="h">~</text><text x="9.018" y="1.67" class="g">$</text><text x="11.022" y="1.67" class="g">node</text><text x="16.032" y="1.67" class="g">remark42-mongodb.js</text><text x="36.072" y="1.67" class="g">sites</text><text x="42.084" y="1.67" class="g">crea</text></svg><svg x="2960"><use xlink:href="#a"/><use xlink:href="#b" x="46.996"/><text y="1.67" class="f">user@pc</text><text x="7.014" y="1.67" class="g">:</text><text x="8.016" y="1.67" class="h">~</text><text x="9.018" y="1.67" class="g">$</text><text x="11.022" y="1.67" class="g">node</text><text x="16.032" y="1.67" class="g">remark42-mongodb.js</text><text x="36.072" y="1.67" class="g">sites</text><text x="42.084" y="1.67" class="g">creat</text></svg><svg x="3040"><use xlink:href="#a"/><use xlink:href="#b" x="47.996"/><use xlink:href="#5"/></svg><svg x="3120"><use xlink:href="#a"/><use xlink:href="#b" x="48.996"/><use xlink:href="#5"/></svg><svg x="3200"><use xlink:href="#a"/><use xlink:href="#b" x="49.996"/><text y="1.67" class="f">user@pc</text><text x="7.014" y="1.67" class="g">:</text><text x="8.016" y="1.67" class="h">~</text><text x="9.018" y="1.67" class="g">$</text><text x="11.022" y="1.67" class="g">node</text><text x="16.032" y="1.67" class="g">remark42-mongodb.js</text><text x="36.072" y="1.67" class="g">sites</text><text x="42.084" y="1.67" class="g">create</text><text x="49.098" y="1.67" class="g">m</text></svg><svg x="3280"><use xlink:href="#a"/><use xlink:href="#b" x="50.996"/><text y="1.67" class="f">user@pc</text><text x="7.014" y="1.67" class="g">:</text><text x="8.016" y="1.67" class="h">~</text><text x="9.018" y="1.67" class="g">$</text><text x="11.022" y="1.67" class="g">node</text><text x="16.032" y="1.67" class="g">remark42-mongodb.js</text><text x="36.072" y="1.67" class="g">sites</text><text x="42.084" y="1.67" class="g">create</text><text x="49.098" y="1.67" class="g">my</text></svg><svg x="3360"><use xlink:href="#a"/><use xlink:href="#b" x="51.996"/><text y="1.67" class="f">user@pc</text><text x="7.014" y="1.67" class="g">:</text><text x="8.016" y="1.67" class="h">~</text><text x="9.018" y="1.67" class="g">$</text><text x="11.022" y="1.67" class="g">node</text><text x="16.032" y="1.67" class="g">remark42-mongodb.js</text><text x="36.072" y="1.67" class="g">sites</text><text x="42.084" y="1.67" class="g">create</text><text x="49.098" y="1.67" class="g">my-</text></svg><svg x="3440"><use xlink:href="#a"/><use xlink:href="#b" x="52.996"/><text y="1.67" class="f">user@pc</text><text x="7.014" y="1.67" class="g">:</text><text x="8.016" y="1.67" class="h">~</text><text x="9.018" y="1.67" class="g">$</text><text x="11.022" y="1.67" class="g">node</text><text x="16.032" y="1.67" class="g">remark42-mongodb.js</text><text x="36.072" y="1.67" class="g">sites</text><text x="42.084" y="1.67" class="g">create</text><text x="49.098" y="1.67" class="g">my-s</text></svg><svg x="3520"><use xlink:href="#a"/><use xlink:href="#b" x="53.996"/><text y="1.67" class="f">user@pc</text><text x="7.014" y="1.67" class="g">:</text><text x="8.016" y="1.67" class="h">~</text><text x="9.018" y="1.67" class="g">$</text><text x="11.022" y="1.67" class="g">node</text><text x="16.032" y="1.67" class="g">remark42-mongodb.js</text><text x="36.072" y="1.67" class="g">sites</text><text x="42.084" y="1.67" class="g">create</text><text x="49.098" y="1.67" class="g">my-si</text></svg><svg x="3600"><use xlink:href="#a"/><use xlink:href="#b" x="54.996"/><text y="1.67" class="f">user@pc</text><text x="7.014" y="1.67" class="g">:</text><text x="8.016" y="1.67" class="h">~</text><text x="9.018" y="1.67" class="g">$</text><text x="11.022" y="1.67" class="g">node</text><text x="16.032" y="1.67" class="g">remark42-mongodb.js</text><text x="36.072" y="1.67" class="g">sites</text><text x="42.084" y="1.67" class="g">create</text><text x="49.098" y="1.67" class="g">my-sit</text></svg><svg x="3680"><use xlink:href="#a"/><use xlink:href="#b" x="55.996"/><use xlink:href="#6"/></svg><svg x="3760"><use xlink:href="#a"/><use xlink:href="#b" x="-.004" y="2.146"/><use xlink:href="#6"/></svg><svg x="3840"><use xlink:href="#a"/><use xlink:href="#b" x="-.004" y="4.317"/><use xlink:href="#6"/><use xlink:href="#7" y="2.171"/></svg><svg x="3920"><use xlink:href="#a"/><use xlink:href="#b" x="-.004" y="6.488"/><use xlink:href="#6"/><use xlink:href="#7" y="2.171"/><use xlink:href="#8" y="4.342"/></svg><svg x="4000"><use xlink:href="#a"/><use xlink:href="#b" x="34.996" y="6.488"/><use xlink:href="#6"/><use xlink:href="#7" y="2.171"/><use xlink:href="#8" y="4.342"/><use xlink:href="#9" y="6.513"/></svg><svg x="4080"><use xlink:href="#a"/><use xlink:href="#b" x="34.996" y="6.488"/><use xlink:href="#6"/><use xlink:href="#7" y="2.171"/><use xlink:href="#8" y="4.342"/><use xlink:href="#9" y="6.513"/></svg><svg x="4160"><use xlink:href="#a"/><use xlink:href="#b" x="34.996" y="6.488"/><use xlink:href="#6"/><use xlink:href="#7" y="2.171"/><use xlink:href="#8" y="4.342"/><use xlink:href="#9" y="6.513"/></svg><svg x="4240"><use xlink:href="#a"/><use xlink:href="#b" x="-.004" y="6.488"/><use xlink:href="#6"/><use xlink:href="#7" y="2.171"/><use xlink:href="#8" y="4.342"/><use xlink:href="#9" y="6.513"/></svg><svg x="4320"><use xlink:href="#a"/><use xlink:href="#b" x="34.996" y="6.488"/><use xlink:href="#6"/><use xlink:href="#7" y="2.171"/><use xlink:href="#8" y="4.342"/><use xlink:href="#9" y="6.513"/></svg><svg x="4400"><use xlink:href="#a"/><use xlink:href="#b" x="34.996" y="6.488"/><use xlink:href="#6"/><use xlink:href="#7" y="2.171"/><use xlink:href="#8" y="4.342"/><use xlink:href="#9" y="6.513"/></svg><svg x="4480"><use xlink:href="#a"/><use xlink:href="#b" x="34.996" y="6.488"/><use xlink:href="#6"/><use xlink:href="#7" y="2.171"/><use xlink:href="#8" y="4.342"/><use xlink:href="#9" y="6.513"/></svg><svg x="4560"><use xlink:href="#a"/><use xlink:href="#b" x="34.996" y="6.488"/><use xlink:href="#6"/><use xlink:href="#7" y="2.171"/><use xlink:href="#8" y="4.342"/><use xlink:href="#9" y="6.513"/></svg><svg x="4640"><use xlink:href="#a"/><use xlink:href="#b" x="34.996" y="6.488"/><use xlink:href="#6"/><use xlink:href="#7" y="2.171"/><use xlink:href="#8" y="4.342"/><use xlink:href="#9" y="6.513"/></svg><svg x="4720"><use xlink:href="#a"/><use xlink:href="#b" x="24.996" y="6.488"/><use xlink:href="#6"/><use xlink:href="#7" y="2.171"/><use xlink:href="#8" y="4.342"/><use xlink:href="#10" y="6.513"/></svg><svg x="4800"><use xlink:href="#a"/><use xlink:href="#b" x="-.004" y="8.659"/><use xlink:href="#6"/><use xlink:href="#7" y="2.171"/><use xlink:href="#8" y="4.342"/><use xlink:href="#10" y="6.513"/></svg><svg x="4880"><use xlink:href="#a"/><use xlink:href="#b" x="21.996" y="8.659"/><use xlink:href="#6"/><use xlink:href="#7" y="2.171"/><use xlink:href="#8" y="4.342"/><use xlink:href="#10" y="6.513"/><text y="10.354" class="j">?</text><text x="2.004" y="10.354" class="k">Administrator</text><text x="16.032" y="10.354" class="k">email</text></svg><svg x="4960"><use xlink:href="#a"/><use xlink:href="#b" x="22.996" y="8.659"/><use xlink:href="#6"/><use xlink:href="#7" y="2.171"/><use xlink:href="#8" y="4.342"/><use xlink:href="#10" y="6.513"/><text y="10.354" class="j">?</text><text x="2.004" y="10.354" class="k">Administrator</text><text x="16.032" y="10.354" class="k">email</text><text x="22.044" y="10.354" class="g">s</text></svg><svg x="5040"><use xlink:href="#a"/><use xlink:href="#b" x="23.996" y="8.659"/><use xlink:href="#6"/><use xlink:href="#7" y="2.171"/><use xlink:href="#8" y="4.342"/><use xlink:href="#10" y="6.513"/><text y="10.354" class="j">?</text><text x="2.004" y="10.354" class="k">Administrator</text><text x="16.032" y="10.354" class="k">email</text><text x="22.044" y="10.354" class="g">si</text></svg><svg x="5120"><use xlink:href="#a"/><use xlink:href="#b" x="24.996" y="8.659"/><use xlink:href="#6"/><use xlink:href="#7" y="2.171"/><use xlink:href="#8" y="4.342"/><use xlink:href="#10" y="6.513"/><text y="10.354" class="j">?</text><text x="2.004" y="10.354" class="k">Administrator</text><text x="16.032" y="10.354" class="k">email</text><text x="22.044" y="10.354" class="g">sit</text></svg><svg x="5200"><use xlink:href="#a"/><use xlink:href="#b" x="25.996" y="8.659"/><use xlink:href="#6"/><use xlink:href="#7" y="2.171"/><use xlink:href="#8" y="4.342"/><use xlink:href="#10" y="6.513"/><text y="10.354" class="j">?</text><text x="2.004" y="10.354" class="k">Administrator</text><text x="16.032" y="10.354" class="k">email</text><text x="22.044" y="10.354" class="g">site</text></svg><svg x="5280"><use xlink:href="#a"/><use xlink:href="#b" x="26.996" y="8.659"/><use xlink:href="#6"/><use xlink:href="#7" y="2.171"/><use xlink:href="#8" y="4.342"/><use xlink:href="#10" y="6.513"/><text y="10.354" class="j">?</text><text x="2.004" y="10.354" class="k">Administrator</text><text x="16.032" y="10.354" class="k">email</text><text x="22.044" y="10.354" class="g">site.</text></svg><svg x="5360"><use xlink:href="#a"/><use xlink:href="#b" x="27.996" y="8.659"/><use xlink:href="#6"/><use xlink:href="#7" y="2.171"/><use xlink:href="#8" y="4.342"/><use xlink:href="#10" y="6.513"/><text y="10.354" class="j">?</text><text x="2.004" y="10.354" class="k">Administrator</text><text x="16.032" y="10.354" class="k">email</text><text x="22.044" y="10.354" class="g">site.a</text></svg><svg x="5440"><use xlink:href="#a"/><use xlink:href="#b" x="28.996" y="8.659"/><use xlink:href="#6"/><use xlink:href="#7" y="2.171"/><use xlink:href="#8" y="4.342"/><use xlink:href="#10" y="6.513"/><text y="10.354" class="j">?</text><text x="2.004" y="10.354" class="k">Administrator</text><text x="16.032" y="10.354" class="k">email</text><text x="22.044" y="10.354" class="g">site.ad</text></svg><svg x="5520"><use xlink:href="#a"/><use xlink:href="#b" x="29.996" y="8.659"/><use xlink:href="#6"/><use xlink:href="#7" y="2.171"/><use xlink:href="#8" y="4.342"/><use xlink:href="#10" y="6.513"/><text y="10.354" class="j">?</text><text x="2.004" y="10.354" class="k">Administrator</text><text x="16.032" y="10.354" class="k">email</text><text x="22.044" y="10.354" class="g">site.adm</text></svg><svg x="5600"><use xlink:href="#a"/><use xlink:href="#b" x="30.996" y="8.659"/><use xlink:href="#6"/><use xlink:href="#7" y="2.171"/><use xlink:href="#8" y="4.342"/><use xlink:href="#10" y="6.513"/><text y="10.354" class="j">?</text><text x="2.004" y="10.354" class="k">Administrator</text><text x="16.032" y="10.354" class="k">email</text><text x="22.044" y="10.354" class="g">site.admi</text></svg><svg x="5680"><use xlink:href="#a"/><use xlink:href="#b" x="31.996" y="8.659"/><use xlink:href="#6"/><use xlink:href="#7" y="2.171"/><use xlink:href="#8" y="4.342"/><use xlink:href="#10" y="6.513"/><text y="10.354" class="j">?</text><text x="2.004" y="10.354" class="k">Administrator</text><text x="16.032" y="10.354" class="k">email</text><text x="22.044" y="10.354" class="g">site.admin</text></svg><svg x="5760"><use xlink:href="#a"/><use xlink:href="#b" x="-.004" y="8.659"/><use xlink:href="#6"/><use xlink:href="#7" y="2.171"/><use xlink:href="#8" y="4.342"/><use xlink:href="#10" y="6.513"/><use xlink:href="#11" y="8.684"/></svg><svg x="5840"><use xlink:href="#a"/><use xlink:href="#b" x="32.996" y="8.659"/><use xlink:href="#6"/><use xlink:href="#7" y="2.171"/><use xlink:href="#8" y="4.342"/><use xlink:href="#10" y="6.513"/><use xlink:href="#11" y="8.684"/></svg><svg x="5920"><use xlink:href="#a"/><use xlink:href="#b" x="-.004" y="8.659"/><use xlink:href="#6"/><use xlink:href="#7" y="2.171"/><use xlink:href="#8" y="4.342"/><use xlink:href="#10" y="6.513"/><use xlink:href="#12" y="8.684"/></svg><svg x="6000"><use xlink:href="#a"/><use xlink:href="#b" x="33.996" y="8.659"/><use xlink:href="#6"/><use xlink:href="#7" y="2.171"/><use xlink:href="#8" y="4.342"/><use xlink:href="#10" y="6.513"/><use xlink:href="#12" y="8.684"/></svg><svg x="6080"><use xlink:href="#a"/><use xlink:href="#b" x="34.996" y="8.659"/><use xlink:href="#6"/><use xlink:href="#7" y="2.171"/><use xlink:href="#8" y="4.342"/><use xlink:href="#10" y="6.513"/><use xlink:href="#13" y="8.684"/></svg><svg x="6160"><use xlink:href="#a"/><use xlink:href="#b" x="34.996" y="8.659"/><use xlink:href="#6"/><use xlink:href="#7" y="2.171"/><use xlink:href="#8" y="4.342"/><use xlink:href="#10" y="6.513"/><use xlink:href="#13" y="8.684"/></svg><svg x="6240"><use xlink:href="#a"/><use xlink:href="#b" x="35.996" y="8.659"/><use xlink:href="#6"/><use xlink:href="#7" y="2.171"/><use xlink:href="#8" y="4.342"/><use xlink:href="#10" y="6.513"/><text y="10.354" class="j">?</text><text x="2.004" y="10.354" class="k">Administrator</text><text x="16.032" y="10.354" class="k">email</text><text x="22.044" y="10.354" class="g">site.admin@gma</text></svg><svg x="6320"><use xlink:href="#a"/><use xlink:href="#b" x="36.996" y="8.659"/><use xlink:href="#6"/><use xlink:href="#7" y="2.171"/><use xlink:href="#8" y="4.342"/><use xlink:href="#10" y="6.513"/><text y="10.354" class="j">?</text><text x="2.004" y="10.354" class="k">Administrator</text><text x="16.032" y="10.354" class="k">email</text><text x="22.044" y="10.354" class="g">site.admin@gmai</text></svg><svg x="6400"><use xlink:href="#a"/><use xlink:href="#b" x="37.996" y="8.659"/><use xlink:href="#6"/><use xlink:href="#7" y="2.171"/><use xlink:href="#8" y="4.342"/><use xlink:href="#10" y="6.513"/><text y="10.354" class="j">?</text><text x="2.004" y="10.354" class="k">Administrator</text><text x="16.032" y="10.354" class="k">email</text><text x="22.044" y="10.354" class="g">site.admin@gmail</text></svg><svg x="6480"><use xlink:href="#a"/><use xlink:href="#b" x="38.996" y="8.659"/><use xlink:href="#6"/><use xlink:href="#7" y="2.171"/><use xlink:href="#8" y="4.342"/><use xlink:href="#10" y="6.513"/><text y="10.354" class="j">?</text><text x="2.004" y="10.354" class="k">Administrator</text><text x="16.032" y="10.354" class="k">email</text><text x="22.044" y="10.354" class="g">site.admin@gmail.</text></svg><svg x="6560"><use xlink:href="#a"/><use xlink:href="#b" x="39.996" y="8.659"/><use xlink:href="#6"/><use xlink:href="#7" y="2.171"/><use xlink:href="#8" y="4.342"/><use xlink:href="#10" y="6.513"/><text y="10.354" class="j">?</text><text x="2.004" y="10.354" class="k">Administrator</text><text x="16.032" y="10.354" class="k">email</text><text x="22.044" y="10.354" class="g">site.admin@gmail.c</text></svg><svg x="6640"><use xlink:href="#a"/><use xlink:href="#b" x="40.996" y="8.659"/><use xlink:href="#6"/><use xlink:href="#7" y="2.171"/><use xlink:href="#8" y="4.342"/><use xlink:href="#10" y="6.513"/><text y="10.354" class="j">?</text><text x="2.004" y="10.354" class="k">Administrator</text><text x="16.032" y="10.354" class="k">email</text><text x="22.044" y="10.354" class="g">site.admin@gmail.co</text></svg><svg x="6720"><use xlink:href="#a"/><use xlink:href="#b" x="41.996" y="8.659"/><use xlink:href="#6"/><use xlink:href="#7" y="2.171"/><use xlink:href="#8" y="4.342"/><use xlink:href="#10" y="6.513"/><text y="10.354" class="j">?</text><text x="2.004" y="10.354" class="k">Administrator</text><text x="16.032" y="10.354" class="k">email</text><text x="22.044" y="10.354" class="g">site.admin@gmail.com</text></svg><svg x="6800"><use xlink:href="#a"/><use xlink:href="#b" x="-.004" y="10.83"/><use xlink:href="#6"/><use xlink:href="#7" y="2.171"/><use xlink:href="#8" y="4.342"/><use xlink:href="#10" y="6.513"/><use xlink:href="#14" y="8.684"/></svg><svg x="6880"><use xlink:href="#a"/><use xlink:href="#b" x="-.004" y="13.001"/><use xlink:href="#6"/><use xlink:href="#7" y="2.171"/><use xlink:href="#8" y="4.342"/><use xlink:href="#10" y="6.513"/><use xlink:href="#14" y="8.684"/><use xlink:href="#15" y="10.855"/></svg><svg x="6960"><use xlink:href="#a"/><use xlink:href="#b" x="10.996" y="13.001"/><use xlink:href="#6"/><use xlink:href="#7" y="2.171"/><use xlink:href="#8" y="4.342"/><use xlink:href="#10" y="6.513"/><use xlink:href="#14" y="8.684"/><use xlink:href="#15" y="10.855"/><use xlink:href="#1" y="13.026"/></svg><svg x="7040"><use xlink:href="#a"/><use xlink:href="#b" x="-.004" y="15.172"/><use xlink:href="#6"/><use xlink:href="#7" y="2.171"/><use xlink:href="#8" y="4.342"/><use xlink:href="#10" y="6.513"/><use xlink:href="#14" y="8.684"/><use xlink:href="#15" y="10.855"/><use xlink:href="#16" y="13.026"/></svg><svg x="7120"><use xlink:href="#a"/><use xlink:href="#b" x="-.004" y="17.343"/><use xlink:href="#6"/><use xlink:href="#7" y="2.171"/><use xlink:href="#8" y="4.342"/><use xlink:href="#10" y="6.513"/><use xlink:href="#14" y="8.684"/><use xlink:href="#15" y="10.855"/><use xlink:href="#16" y="13.026"/></svg></svg></g></g></svg></svg>