<svg xmlns="http://www.w3.org/2000/svg" xmlns:xlink="http://www.w3.org/1999/xlink" width="840" height="385.65"><rect width="840" height="385.65" rx="5" ry="5" class="a"/><svg y="0%" x="0%"><circle cx="20" cy="20" r="6" fill="#ff5f58"/><circle cx="40" cy="20" r="6" fill="#ffbd2e"/><circle cx="60" cy="20" r="6" fill="#18c132"/></svg><svg height="325.65" viewBox="0 0 80 32.565" width="800" x="15" xmlns="http://www.w3.org/2000/svg" xmlns:xlink="http://www.w3.org/1999/xlink" y="50"><style>@keyframes n{0%{transform:translateX(0)}.9%{transform:translateX(-80px)}4.82%{transform:translateX(-160px)}5.11%{transform:translateX(-240px)}5.34%{transform:translateX(-320px)}5.67%{transform:translateX(-400px)}6.19%{transform:translateX(-480px)}6.61%{transform:translateX(-560px)}6.9%{transform:translateX(-640px)}7.5%{transform:translateX(-720px)}7.89%{transform:translateX(-800px)}8.21%{transform:translateX(-880px)}8.62%{transform:translateX(-960px)}9.67%{transform:translateX(-1040px)}10.22%{transform:translateX(-1120px)}13.11%{transform:translateX(-1200px)}13.97%{transform:translateX(-1280px)}14.4%{transform:translateX(-1360px)}14.82%{transform:translateX(-1440px)}15.11%{transform:translateX(-1520px)}15.53%{transform:translateX(-1600px)}17%{transform:translateX(-1680px)}17.46%{transform:translateX(-1760px)}18.45%{transform:translateX(-1840px)}20.41%{transform:translateX(-1920px)}20.82%{transform:translateX(-2000px)}22.17%{transform:translateX(-2080px)}26.08%{transform:translateX(-2160px)}26.33%{transform:translateX(-2240px)}26.57%{transform:translateX(-2320px)}26.95%{transform:translateX(-2400px)}27.47%{transform:translateX(-2480px)}29.02%{transform:translateX(-2560px)}29.46%{transform:translateX(-2640px)}29.77%{transform:translateX(-2720px)}30.02%{transform:translateX(-2800px)}30.87%{transform:translateX(-2880px)}31.35%{transform:translateX(-2960px)}31.87%{transform:translateX(-3040px)}33.59%{transform:translateX(-3120px)}34.36%{transform:translateX(-3200px)}34.77%{transform:translateX(-3280px)}35.56%{transform:translateX(-3360px)}36.31%{transform:translateX(-3440px)}36.87%{transform:translateX(-3520px)}37.31%{transform:translateX(-3600px)}37.56%{transform:translateX(-3680px)}38.03%{transform:translateX(-3760px)}39.05%{transform:translateX(-3840px)}39.24%{transform:translateX(-3920px)}39.84%{transform:translateX(-4000px)}40.13%{transform:translateX(-4080px)}40.96%{transform:translateX(-4160px)}42.82%{transform:translateX(-4240px)}43.9%{transform:translateX(-4320px)}45.59%{transform:translateX(-4400px)}46.44%{transform:translateX(-4480px)}47.97%{transform:translateX(-4560px)}48.26%{transform:translateX(-4640px)}48.74%{transform:translateX(-4720px)}49.5%{transform:translateX(-4800px)}49.83%{transform:translateX(-4880px)}50.2%{transform:translateX(-4960px)}50.52%{transform:translateX(-5040px)}53.89%{transform:translateX(-5120px)}57.01%{transform:translateX(-5200px)}57.62%{transform:translateX(-5280px)}57.85%{transform:translateX(-5360px)}58.45%{transform:translateX(-5440px)}60.08%{transform:translateX(-5520px)}60.5%{transform:translateX(-5600px)}60.73%{transform:translateX(-5680px)}61.17%{transform:translateX(-5760px)}65.09%{transform:translateX(-5840px)}69%{transform:translateX(-5920px)}69.02%{transform:translateX(-6000px)}69.33%{transform:translateX(-6080px)}73.25%{transform:translateX(-6240px)}76.34%{transform:translateX(-6400px)}76.36%{transform:translateX(-6480px)}76.42%{transform:translateX(-6560px)}80.34%{transform:translateX(-6640px)}to{transform:translateX(-6720px)}}.a{fill:#282d35}.f{fill:#a8cc8c;font-weight:700;white-space:pre}.g{fill:#b9c0cb}.g,.h,.i,.j,.k{white-space:pre}.h{fill:#71bef2;font-weight:700}.i,.j,.k{fill:#66c2cd}.j,.k{fill:#a8cc8c}.k{fill:#b9c0cb;font-weight:700}</style><g font-family="Monaco,Consolas,Menlo,'Bitstream Vera Sans Mono','Powerline Symbols',monospace" font-size="1.67"><defs><symbol id="1"><text y="1.67" class="f">user@pc</text><text x="7.014" y="1.67" class="g">:</text><text x="8.016" y="1.67" class="h">~</text><text x="9.018" y="1.67" class="g">$</text></symbol><symbol id="2"><text y="1.67" class="f">user@pc</text><text x="7.014" y="1.67" class="g">:</text><text x="8.016" y="1.67" class="h">~</text><text x="9.018" y="1.67" class="g">$</text><text x="11.022" y="1.67" class="g">node</text></symbol><symbol id="3"><text y="1.67" class="f">user@pc</text><text x="7.014" y="1.67" class="g">:</text><text x="8.016" y="1.67" class="h">~</text><text x="9.018" y="1.67" class="g">$</text><text x="11.022" y="1.67" class="g">node</text><text x="16.032" y="1.67" class="g">remark42-mongodb.js</text></symbol><symbol id="4"><text y="1.67" class="f">user@pc</text><text x="7.014" y="1.67" class="g">:</text><text x="8.016" y="1.67" class="h">~</text><text x="9.018" y="1.67" class="g">$</text><text x="11.022" y="1.67" class="g">node</text><text x="16.032" y="1.67" class="g">remark42-mongodb.js</text><text x="36.072" y="1.67" class="g">posts</text></symbol><symbol id="5"><text y="1.67" class="f">user@pc</text><text x="7.014" y="1.67" class="g">:</text><text x="8.016" y="1.67" class="h">~</text><text x="9.018" y="1.67" class="g">$</text><text x="11.022" y="1.67" class="g">node</text><text x="16.032" y="1.67" class="g">remark42-mongodb.js</text><text x="36.072" y="1.67" class="g">posts</text><text x="42.084" y="1.67" class="g">create</text></symbol><symbol id="6"><text y="1.67" class="f">user@pc</text><text x="7.014" y="1.67" class="g">:</text><text x="8.016" y="1.67" class="h">~</text><text x="9.018" y="1.67" class="g">$</text><text x="11.022" y="1.67" class="g">node</text><text x="16.032" y="1.67" class="g">remark42-mongodb.js</text><text x="36.072" y="1.67" class="g">posts</text><text x="42.084" y="1.67" class="g">create</text><text x="49.098" y="1.67" class="g">my-site</text></symbol><symbol id="7"><text y="1.67" class="f">user@pc</text><text x="7.014" y="1.67" class="g">:</text><text x="8.016" y="1.67" class="h">~</text><text x="9.018" y="1.67" class="g">$</text><text x="11.022" y="1.67" class="g">node</text><text x="16.032" y="1.67" class="g">remark42-mongodb.js</text><text x="36.072" y="1.67" class="g">posts</text><text x="42.084" y="1.67" class="g">create</text><text x="49.098" y="1.67" class="g">my-site</text><text x="57.114" y="1.67" class="g">http://localhost/new-po</text></symbol><symbol id="8"><text y="1.67" class="g">st</text></symbol><symbol id="9"><text y="1.67" class="i">Remark42</text><text x="9.018" y="1.67" class="i">MongoDB</text><text x="17.034" y="1.67" class="i">Server</text><text x="24.048" y="1.67" class="i">v0.1.0</text></symbol><symbol id="10"><text y="1.67" class="g">Loaded</text><text x="7.014" y="1.67" class="g">configuration</text><text x="21.042" y="1.67" class="g">file</text><text x="26.052" y="1.67" class="g">&apos;remark42-mongodb.json&apos;</text></symbol><symbol id="11"><text y="1.67" class="j">?</text><text x="2.004" y="1.67" class="k">Read</text><text x="7.014" y="1.67" class="k">only</text><text x="12.024" y="1.67" class="i">No</text></symbol><symbol id="12"><text y="1.67" class="j">Post</text><text x="5.01" y="1.67" class="j">&apos;http://localhost/new-post&apos;</text><text x="33.066" y="1.67" class="j">created</text></symbol><symbol id="13"><text y="1.67" class="f">user@pc</text><text x="7.014" y="1.67" class="g">:</text><text x="8.016" y="1.67" class="h">~</text><text x="9.018" y="1.67" class="g">$</text><text x="11.022" y="1.67" class="g">exit</text></symbol><symbol id="a"><path fill="transparent" d="M0 0h80v15H0z"/></symbol><symbol id="b"><path fill="#6f7683" d="M0 0h1.102v2.171H0z"/></symbol></defs><path class="a" d="M0 0h80v32.565H0z"/><g style="animation-duration:25.545746s;animation-iteration-count:infinite;animation-name:n;animation-timing-function:steps(1,end)"><svg width="6800"><svg><use xlink:href="#a"/><use xlink:href="#b" x="-.004"/></svg><svg x="80"><use xlink:href="#a"/><use xlink:href="#b" x="10.996"/><use xlink:href="#1"/></svg><svg x="160"><use xlink:href="#a"/><use xlink:href="#b" x="11.996"/><text y="1.67" class="f">user@pc</text><text x="7.014" y="1.67" class="g">:</text><text x="8.016" y="1.67" class="h">~</text><text x="9.018" y="1.67" class="g">$</text><text x="11.022" y="1.67" class="g">n</text></svg><svg x="240"><use xlink:href="#a"/><use xlink:href="#b" x="12.996"/><text y="1.67" class="f">user@pc</text><text x="7.014" y="1.67" class="g">:</text><text x="8.016" y="1.67" class="h">~</text><text x="9.018" y="1.67" class="g">$</text><text x="11.022" y="1.67" class="g">no</text></svg><svg x="320"><use xlink:href="#a"/><use xlink:href="#b" x="13.996"/><text y="1.67" class="f">user@pc</text><text x="7.014" y="1.67" class="g">:</text><text x="8.016" y="1.67" class="h">~</text><text x="9.018" y="1.67" class="g">$</text><text x="11.022" y="1.67" class="g">nod</text></svg><svg x="400"><use xlink:href="#a"/><use xlink:href="#b" x="14.996"/><use xlink:href="#2"/></svg><svg x="480"><use xlink:href="#a"/><use xlink:href="#b" x="15.996"/><use xlink:href="#2"/></svg><svg x="560"><use xlink:href="#a"/><use xlink:href="#b" x="16.996"/><text y="1.67" class="f">user@pc</text><text x="7.014" y="1.67" class="g">:</text><text x="8.016" y="1.67" class="h">~</text><text x="9.018" y="1.67" class="g">$</text><text x="11.022" y="1.67" class="g">node</text><text x="16.032" y="1.67" class="g">r</text></svg><svg x="640"><use xlink:href="#a"/><use xlink:href="#b" x="17.996"/><text y="1.67" class="f">user@pc</text><text x="7.014" y="1.67" class="g">:</text><text x="8.016" y="1.67" class="h">~</text><text x="9.018" y="1.67" class="g">$</text><text x="11.022" y="1.67" class="g">node</text><text x="16.032" y="1.67" class="g">re</text></svg><svg x="720"><use xlink:href="#a"/><use xlink:href="#b" x="18.996"/><text y="1.67" class="f">user@pc</text><text x="7.014" y="1.67" class="g">:</text><text x="8.016" y="1.67" class="h">~</text><text x="9.018" y="1.67" class="g">$</text><text x="11.022" y="1.67" class="g">node</text><text x="16.032" y="1.67" class="g">rem</text></svg><svg x="800"><use xlink:href="#a"/><use xlink:href="#b" x="19.996"/><text y="1.67" class="f">user@pc</text><text x="7.014" y="1.67" class="g">:</text><text x="8.016" y="1.67" class="h">~</text><text x="9.018" y="1.67" class="g">$</text><text x="11.022" y="1.67" class="g">node</text><text x="16.032" y="1.67" class="g">rema</text></svg><svg x="880"><use xlink:href="#a"/><use xlink:href="#b" x="20.996"/><text y="1.67" class="f">user@pc</text><text x="7.014" y="1.67" class="g">:</text><text x="8.016" y="1.67" class="h">~</text><text x="9.018" y="1.67" class="g">$</text><text x="11.022" y="1.67" class="g">node</text><text x="16.032" y="1.67" class="g">remar</text></svg><svg x="960"><use xlink:href="#a"/><use xlink:href="#b" x="21.996"/><text y="1.67" class="f">user@pc</text><text x="7.014" y="1.67" class="g">:</text><text x="8.016" y="1.67" class="h">~</text><text x="9.018" y="1.67" class="g">$</text><text x="11.022" y="1.67" class="g">node</text><text x="16.032" y="1.67" class="g">remark</text></svg><svg x="1040"><use xlink:href="#a"/><use xlink:href="#b" x="22.996"/><text y="1.67" class="f">user@pc</text><text x="7.014" y="1.67" class="g">:</text><text x="8.016" y="1.67" class="h">~</text><text x="9.018" y="1.67" class="g">$</text><text x="11.022" y="1.67" class="g">node</text><text x="16.032" y="1.67" class="g">remark4</text></svg><svg x="1120"><use xlink:href="#a"/><use xlink:href="#b" x="23.996"/><text y="1.67" class="f">user@pc</text><text x="7.014" y="1.67" class="g">:</text><text x="8.016" y="1.67" class="h">~</text><text x="9.018" y="1.67" class="g">$</text><text x="11.022" y="1.67" class="g">node</text><text x="16.032" y="1.67" class="g">remark42</text></svg><svg x="1200"><use xlink:href="#a"/><use xlink:href="#b" x="24.996"/><text y="1.67" class="f">user@pc</text><text x="7.014" y="1.67" class="g">:</text><text x="8.016" y="1.67" class="h">~</text><text x="9.018" y="1.67" class="g">$</text><text x="11.022" y="1.67" class="g">node</text><text x="16.032" y="1.67" class="g">remark42-</text></svg><svg x="1280"><use xlink:href="#a"/><use xlink:href="#b" x="25.996"/><text y="1.67" class="f">user@pc</text><text x="7.014" y="1.67" class="g">:</text><text x="8.016" y="1.67" class="h">~</text><text x="9.018" y="1.67" class="g">$</text><text x="11.022" y="1.67" class="g">node</text><text x="16.032" y="1.67" class="g">remark42-m</text></svg><svg x="1360"><use xlink:href="#a"/><use xlink:href="#b" x="26.996"/><text y="1.67" class="f">user@pc</text><text x="7.014" y="1.67" class="g">:</text><text x="8.016" y="1.67" class="h">~</text><text x="9.018" y="1.67" class="g">$</text><text x="11.022" y="1.67" class="g">node</text><text x="16.032" y="1.67" class="g">remark42-mo</text></svg><svg x="1440"><use xlink:href="#a"/><use xlink:href="#b" x="27.996"/><text y="1.67" class="f">user@pc</text><text x="7.014" y="1.67" class="g">:</text><text x="8.016" y="1.67" class="h">~</text><text x="9.018" y="1.67" class="g">$</text><text x="11.022" y="1.67" class="g">node</text><text x="16.032" y="1.67" class="g">remark42-mon</text></svg><svg x="1520"><use xlink:href="#a"/><use xlink:href="#b" x="28.996"/><text y="1.67" class="f">user@pc</text><text x="7.014" y="1.67" class="g">:</text><text x="8.016" y="1.67" class="h">~</text><text x="9.018" y="1.67" class="g">$</text><text x="11.022" y="1.67" class="g">node</text><text x="16.032" y="1.67" class="g">remark42-mong</text></svg><svg x="1600"><use xlink:href="#a"/><use xlink:href="#b" x="29.996"/><text y="1.67" class="f">user@pc</text><text x="7.014" y="1.67" class="g">:</text><text x="8.016" y="1.67" class="h">~</text><text x="9.018" y="1.67" class="g">$</text><text x="11.022" y="1.67" class="g">node</text><text x="16.032" y="1.67" class="g">remark42-mongo</text></svg><svg x="1680"><use xlink:href="#a"/><use xlink:href="#b" x="30.996"/><text y="1.67" class="f">user@pc</text><text x="7.014" y="1.67" class="g">:</text><text x="8.016" y="1.67" class="h">~</text><text x="9.018" y="1.67" class="g">$</text><text x="11.022" y="1.67" class="g">node</text><text x="16.032" y="1.67" class="g">remark42-mongod</text></svg><svg x="1760"><use xlink:href="#a"/><use xlink:href="#b" x="31.996"/><text y="1.67" class="f">user@pc</text><text x="7.014" y="1.67" class="g">:</text><text x="8.016" y="1.67" class="h">~</text><text x="9.018" y="1.67" class="g">$</text><text x="11.022" y="1.67" class="g">node</text><text x="16.032" y="1.67" class="g">remark42-mongodb</text></svg><svg x="1840"><use xlink:href="#a"/><use xlink:href="#b" x="32.996"/><text y="1.67" class="f">user@pc</text><text x="7.014" y="1.67" class="g">:</text><text x="8.016" y="1.67" class="h">~</text><text x="9.018" y="1.67" class="g">$</text><text x="11.022" y="1.67" class="g">node</text><text x="16.032" y="1.67" class="g">remark42-mongodb.</text></svg><svg x="1920"><use xlink:href="#a"/><use xlink:href="#b" x="33.996"/><text y="1.67" class="f">user@pc</text><text x="7.014" y="1.67" class="g">:</text><text x="8.016" y="1.67" class="h">~</text><text x="9.018" y="1.67" class="g">$</text><text x="11.022" y="1.67" class="g">node</text><text x="16.032" y="1.67" class="g">remark42-mongodb.j</text></svg><svg x="2000"><use xlink:href="#a"/><use xlink:href="#b" x="34.996"/><use xlink:href="#3"/></svg><svg x="2080"><use xlink:href="#a"/><use xlink:href="#b" x="35.996"/><use xlink:href="#3"/></svg><svg x="2160"><use xlink:href="#a"/><use xlink:href="#b" x="36.996"/><text y="1.67" class="f">user@pc</text><text x="7.014" y="1.67" class="g">:</text><text x="8.016" y="1.67" class="h">~</text><text x="9.018" y="1.67" class="g">$</text><text x="11.022" y="1.67" class="g">node</text><text x="16.032" y="1.67" class="g">remark42-mongodb.js</text><text x="36.072" y="1.67" class="g">p</text></svg><svg x="2240"><use xlink:href="#a"/><use xlink:href="#b" x="37.996"/><text y="1.67" class="f">user@pc</text><text x="7.014" y="1.67" class="g">:</text><text x="8.016" y="1.67" class="h">~</text><text x="9.018" y="1.67" class="g">$</text><text x="11.022" y="1.67" class="g">node</text><text x="16.032" y="1.67" class="g">remark42-mongodb.js</text><text x="36.072" y="1.67" class="g">po</text></svg><svg x="2320"><use xlink:href="#a"/><use xlink:href="#b" x="38.996"/><text y="1.67" class="f">user@pc</text><text x="7.014" y="1.67" class="g">:</text><text x="8.016" y="1.67" class="h">~</text><text x="9.018" y="1.67" class="g">$</text><text x="11.022" y="1.67" class="g">node</text><text x="16.032" y="1.67" class="g">remark42-mongodb.js</text><text x="36.072" y="1.67" class="g">pos</text></svg><svg x="2400"><use xlink:href="#a"/><use xlink:href="#b" x="39.996"/><text y="1.67" class="f">user@pc</text><text x="7.014" y="1.67" class="g">:</text><text x="8.016" y="1.67" class="h">~</text><text x="9.018" y="1.67" class="g">$</text><text x="11.022" y="1.67" class="g">node</text><text x="16.032" y="1.67" class="g">remark42-mongodb.js</text><text x="36.072" y="1.67" class="g">post</text></svg><svg x="2480"><use xlink:href="#a"/><use xlink:href="#b" x="40.996"/><use xlink:href="#4"/></svg><svg x="2560"><use xlink:href="#a"/><use xlink:href="#b" x="41.996"/><use xlink:href="#4"/></svg><svg x="2640"><use xlink:href="#a"/><use xlink:href="#b" x="42.996"/><text y="1.67" class="f">user@pc</text><text x="7.014" y="1.67" class="g">:</text><text x="8.016" y="1.67" class="h">~</text><text x="9.018" y="1.67" class="g">$</text><text x="11.022" y="1.67" class="g">node</text><text x="16.032" y="1.67" class="g">remark42-mongodb.js</text><text x="36.072" y="1.67" class="g">posts</text><text x="42.084" y="1.67" class="g">c</text></svg><svg x="2720"><use xlink:href="#a"/><use xlink:href="#b" x="43.996"/><text y="1.67" class="f">user@pc</text><text x="7.014" y="1.67" class="g">:</text><text x="8.016" y="1.67" class="h">~</text><text x="9.018" y="1.67" class="g">$</text><text x="11.022" y="1.67" class="g">node</text><text x="16.032" y="1.67" class="g">remark42-mongodb.js</text><text x="36.072" y="1.67" class="g">posts</text><text x="42.084" y="1.67" class="g">cr</text></svg><svg x="2800"><use xlink:href="#a"/><use xlink:href="#b" x="44.996"/><text y="1.67" class="f">user@pc</text><text x="7.014" y="1.67" class="g">:</text><text x="8.016" y="1.67" class="h">~</text><text x="9.018" y="1.67" class="g">$</text><text x="11.022" y="1.67" class="g">node</text><text x="16.032" y="1.67" class="g">remark42-mongodb.js</text><text x="36.072" y="1.67" class="g">posts</text><text x="42.084" y="1.67" class="g">cre</text></svg><svg x="2880"><use xlink:href="#a"/><use xlink:href="#b" x="45.996"/><text y="1.67" class="f">user@pc</text><text x="7.014" y="1.67" class="g">:</text><text x="8.016" y="1.67" class="h">~</text><text x="9.018" y="1.67" class="g">$</text><text x="11.022" y="1.67" class="g">node</text><text x="16.032" y="1.67" class="g">remark42-mongodb.js</text><text x="36.072" y="1.67" class="g">posts</text><text x="42.084" y="1.67" class="g">crea</text></svg><svg x="2960"><use xlink:href="#a"/><use xlink:href="#b" x="46.996"/><text y="1.67" class="f">user@pc</text><text x="7.014" y="1.67" class="g">:</text><text x="8.016" y="1.67" class="h">~</text><text x="9.018" y="1.67" class="g">$</text><text x="11.022" y="1.67" class="g">node</text><text x="16.032" y="1.67" class="g">remark42-mongodb.js</text><text x="36.072" y="1.67" class="g">posts</text><text x="42.084" y="1.67" class="g">creat</text></svg><svg x="3040"><use xlink:href="#a"/><use xlink:href="#b" x="47.996"/><use xlink:href="#5"/></svg><svg x="3120"><use xlink:href="#a"/><use xlink:href="#b" x="48.996"/><use xlink:href="#5"/></svg><svg x="3200"><use xlink:href="#a"/><use xlink:href="#b" x="49.996"/><text y="1.67" class="f">user@pc</text><text x="7.014" y="1.67" class="g">:</text><text x="8.016" y="1.67" class="h">~</text><text x="9.018" y="1.67" class="g">$</text><text x="11.022" y="1.67" class="g">node</text><text x="16.032" y="1.67" class="g">remark42-mongodb.js</text><text x="36.072" y="1.67" class="g">posts</text><text x="42.084" y="1.67" class="g">create</text><text x="49.098" y="1.67" class="g">m</text></svg><svg x="3280"><use xlink:href="#a"/><use xlink:href="#b" x="50.996"/><text y="1.67" class="f">user@pc</text><text x="7.014" y="1.67" class="g">:</text><text x="8.016" y="1.67" class="h">~</text><text x="9.018" y="1.67" class="g">$</text><text x="11.022" y="1.67" class="g">node</text><text x="16.032" y="1.67" class="g">remark42-mongodb.js</text><text x="36.072" y="1.67" class="g">posts</text><text x="42.084" y="1.67" class="g">create</text><text x="49.098" y="1.67" class="g">my</text></svg><svg x="3360"><use xlink:href="#a"/><use xlink:href="#b" x="51.996"/><text y="1.67" class="f">user@pc</text><text x="7.014" y="1.67" class="g">:</text><text x="8.016" y="1.67" class="h">~</text><text x="9.018" y="1.67" class="g">$</text><text x="11.022" y="1.67" class="g">node</text><text x="16.032" y="1.67" class="g">remark42-mongodb.js</text><text x="36.072" y="1.67" class="g">posts</text><text x="42.084" y="1.67" class="g">create</text><text x="49.098" y="1.67" class="g">my-</text></svg><svg x="3440"><use xlink:href="#a"/><use xlink:href="#b" x="52.996"/><text y="1.67" class="f">user@pc</text><text x="7.014" y="1.67" class="g">:</text><text x="8.016" y="1.67" class="h">~</text><text x="9.018" y="1.67" class="g">$</text><text x="11.022" y="1.67" class="g">node</text><text x="16.032" y="1.67" class="g">remark42-mongodb.js</text><text x="36.072" y="1.67" class="g">posts</text><text x="42.084" y="1.67" class="g">create</text><text x="49.098" y="1.67" class="g">my-s</text></svg><svg x="3520"><use xlink:href="#a"/><use xlink:href="#b" x="53.996"/><text y="1.67" class="f">user@pc</text><text x="7.014" y="1.67" class="g">:</text><text x="8.016" y="1.67" class="h">~</text><text x="9.018" y="1.67" class="g">$</text><text x="11.022" y="1.67" class="g">node</text><text x="16.032" y="1.67" class="g">remark42-mongodb.js</text><text x="36.072" y="1.67" class="g">posts</text><text x="42.084" y="1.67" class="g">create</text><text x="49.098" y="1.67" class="g">my-si</text></svg><svg x="3600"><use xlink:href="#a"/><use xlink:href="#b" x="54.996"/><text y="1.67" class="f">user@pc</text><text x="7.014" y="1.67" class="g">:</text><text x="8.016" y="1.67" class="h">~</text><text x="9.018" y="1.67" class="g">$</text><text x="11.022" y="1.67" class="g">node</text><text x="16.032" y="1.67" class="g">remark42-mongodb.js</text><text x="36.072" y="1.67" class="g">posts</text><text x="42.084" y="1.67" class="g">create</text><text x="49.098" y="1.67" class="g">my-sit</text></svg><svg x="3680"><use xlink:href="#a"/><use xlink:href="#b" x="55.996"/><use xlink:href="#6"/></svg><svg x="3760"><use xlink:href="#a"/><use xlink:href="#b" x="56.996"/><use xlink:href="#6"/></svg><svg x="3840"><use xlink:href="#a"/><use xlink:href="#b" x="57.996"/><text y="1.67" class="f">user@pc</text><text x="7.014" y="1.67" class="g">:</text><text x="8.016" y="1.67" class="h">~</text><text x="9.018" y="1.67" class="g">$</text><text x="11.022" y="1.67" class="g">node</text><text x="16.032" y="1.67" class="g">remark42-mongodb.js</text><text x="36.072" y="1.67" class="g">posts</text><text x="42.084" y="1.67" class="g">create</text><text x="49.098" y="1.67" class="g">my-site</text><text x="57.114" y="1.67" class="g">h</text></svg><svg x="3920"><use xlink:href="#a"/><use xlink:href="#b" x="58.996"/><text y="1.67" class="f">user@pc</text><text x="7.014" y="1.67" class="g">:</text><text x="8.016" y="1.67" class="h">~</text><text x="9.018" y="1.67" class="g">$</text><text x="11.022" y="1.67" class="g">node</text><text x="16.032" y="1.67" class="g">remark42-mongodb.js</text><text x="36.072" y="1.67" class="g">posts</text><text x="42.084" y="1.67" class="g">create</text><text x="49.098" y="1.67" class="g">my-site</text><text x="57.114" y="1.67" class="g">ht</text></svg><svg x="4000"><use xlink:href="#a"/><use xlink:href="#b" x="59.996"/><text y="1.67" class="f">user@pc</text><text x="7.014" y="1.67" class="g">:</text><text x="8.016" y="1.67" class="h">~</text><text x="9.018" y="1.67" class="g">$</text><text x="11.022" y="1.67" class="g">node</text><text x="16.032" y="1.67" class="g">remark42-mongodb.js</text><text x="36.072" y="1.67" class="g">posts</text><text x="42.084" y="1.67" class="g">create</text><text x="49.098" y="1.67" class="g">my-site</text><text x="57.114" y="1.67" class="g">htt</text></svg><svg x="4080"><use xlink:href="#a"/><use xlink:href="#b" x="60.996"/><text y="1.67" class="f">user@pc</text><text x="7.014" y="1.67" class="g">:</text><text x="8.016" y="1.67" class="h">~</text><text x="9.018" y="1.67" class="g">$</text><text x="11.022" y="1.67" class="g">node</text><text x="16.032" y="1.67" class="g">remark42-mongodb.js</text><text x="36.072" y="1.67" class="g">posts</text><text x="42.084" y="1.67" class="g">create</text><text x="49.098" y="1.67" class="g">my-site</text><text x="57.114" y="1.67" class="g">http</text></svg><svg x="4160"><use xlink:href="#a"/><use xlink:href="#b" x="61.996"/><text y="1.67" class="f">user@pc</text><text x="7.014" y="1.67" class="g">:</text><text x="8.016" y="1.67" class="h">~</text><text x="9.018" y="1.67" class="g">$</text><text x="11.022" y="1.67" class="g">node</text><text x="16.032" y="1.67" class="g">remark42-mongodb.js</text><text x="36.072" y="1.67" class="g">posts</text><text x="42.084" y="1.67" class="g">create</text><text x="49.098" y="1.67" class="g">my-site</text><text x="57.114" y="1.67" class="g">http:</text></svg><svg x="4240"><use xlink:href="#a"/><use xlink:href="#b" x="62.996"/><text y="1.67" class="f">user@pc</text><text x="7.014" y="1.67" class="g">:</text><text x="8.016" y="1.67" class="h">~</text><text x="9.018" y="1.67" class="g">$</text><text x="11.022" y="1.67" class="g">node</text><text x="16.032" y="1.67" class="g">remark42-mongodb.js</text><text x="36.072" y="1.67" class="g">posts</text><text x="42.084" y="1.67" class="g">create</text><text x="49.098" y="1.67" class="g">my-site</text><text x="57.114" y="1.67" class="g">http:/</text></svg><svg x="4320"><use xlink:href="#a"/><use xlink:href="#b" x="63.996"/><text y="1.67" class="f">user@pc</text><text x="7.014" y="1.67" class="g">:</text><text x="8.016" y="1.67" class="h">~</text><text x="9.018" y="1.67" class="g">$</text><text x="11.022" y="1.67" class="g">node</text><text x="16.032" y="1.67" class="g">remark42-mongodb.js</text><text x="36.072" y="1.67" class="g">posts</text><text x="42.084" y="1.67" class="g">create</text><text x="49.098" y="1.67" class="g">my-site</text><text x="57.114" y="1.67" class="g">http://</text></svg><svg x="4400"><use xlink:href="#a"/><use xlink:href="#b" x="64.996"/><text y="1.67" class="f">user@pc</text><text x="7.014" y="1.67" class="g">:</text><text x="8.016" y="1.67" class="h">~</text><text x="9.018" y="1.67" class="g">$</text><text x="11.022" y="1.67" class="g">node</text><text x="16.032" y="1.67" class="g">remark42-mongodb.js</text><text x="36.072" y="1.67" class="g">posts</text><text x="42.084" y="1.67" class="g">create</text><text x="49.098" y="1.67" class="g">my-site</text><text x="57.114" y="1.67" class="g">http://l</text></svg><svg x="4480"><use xlink:href="#a"/><use xlink:href="#b" x="65.996"/><text y="1.67" class="f">user@pc</text><text x="7.014" y="1.67" class="g">:</text><text x="8.016" y="1.67" class="h">~</text><text x="9.018" y="1.67" class="g">$</text><text x="11.022" y="1.67" class="g">node</text><text x="16.032" y="1.67" class="g">remark42-mongodb.js</text><text x="36.072" y="1.67" class="g">posts</text><text x="42.084" y="1.67" class="g">create</text><text x="49.098" y="1.67" class="g">my-site</text><text x="57.114" y="1.67" class="g">http://lo</text></svg><svg x="4560"><use xlink:href="#a"/><use xlink:href="#b" x="66.996"/><text y="1.67" class="f">user@pc</text><text x="7.014" y="1.67" class="g">:</text><text x="8.016" y="1.67" class="h">~</text><text x="9.018" y="1.67" class="g">$</text><text x="11.022" y="1.67" class="g">node</text><text x="16.032" y="1.67" class="g">remark42-mongodb.js</text><text x="36.072" y="1.67" class="g">posts</text><text x="42.084" y="1.67" class="g">create</text><text x="49.098" y="1.67" class="g">my-site</text><text x="57.114" y="1.67" class="g">http://loc</text></svg><svg x="4640"><use xlink:href="#a"/><use xlink:href="#b" x="67.996"/><text y="1.67" class="f">user@pc</text><text x="7.014" y="1.67" class="g">:</text><text x="8.016" y="1.67" class="h">~</text><text x="9.018" y="1.67" class="g">$</text><text x="11.022" y="1.67" class="g">node</text><text x="16.032" y="1.67" class="g">remark42-mongodb.js</text><text x="36.072" y="1.67" class="g">posts</text><text x="42.084" y="1.67" class="g">create</text><text x="49.098" y="1.67" class="g">my-site</text><text x="57.114" y="1.67" class="g">http://loca</text></svg><svg x="4720"><use xlink:href="#a"/><use xlink:href="#b" x="68.996"/><text y="1.67" class="f">user@pc</text><text x="7.014" y="1.67" class="g">:</text><text x="8.016" y="1.67" class="h">~</text><text x="9.018" y="1.67" class="g">$</text><text x="11.022" y="1.67" class="g">node</text><text x="16.032" y="1.67" class="g">remark42-mongodb.js</text><text x="36.072" y="1.67" class="g">posts</text><text x="42.084" y="1.67" class="g">create</text><text x="49.098" y="1.67" class="g">my-site</text><text x="57.114" y="1.67" class="g">http://local</text></svg><svg x="4800"><use xlink:href="#a"/><use xlink:href="#b" x="69.996"/><text y="1.67" class="f">user@pc</text><text x="7.014" y="1.67" class="g">:</text><text x="8.016" y="1.67" class="h">~</text><text x="9.018" y="1.67" class="g">$</text><text x="11.022" y="1.67" class="g">node</text><text x="16.032" y="1.67" class="g">remark42-mongodb.js</text><text x="36.072" y="1.67" class="g">posts</text><text x="42.084" y="1.67" class="g">create</text><text x="49.098" y="1.67" class="g">my-site</text><text x="57.114" y="1.67" class="g">http://localh</text></svg><svg x="4880"><use xlink:href="#a"/><use xlink:href="#b" x="70.996"/><text y="1.67" class="f">user@pc</text><text x="7.014" y="1.67" class="g">:</text><text x="8.016" y="1.67" class="h">~</text><text x="9.018" y="1.67" class="g">$</text><text x="11.022" y="1.67" class="g">node</text><text x="16.032" y="1.67" class="g">remark42-mongodb.js</text><text x="36.072" y="1.67" class="g">posts</text><text x="42.084" y="1.67" class="g">create</text><text x="49.098" y="1.67" class="g">my-site</text><text x="57.114" y="1.67" class="g">http://localho</text></svg><svg x="4960"><use xlink:href="#a"/><use xlink:href="#b" x="71.996"/><text y="1.67" class="f">user@pc</text><text x="7.014" y="1.67" class="g">:</text><text x="8.016" y="1.67" class="h">~</text><text x="9.018" y="1.67" class="g">$</text><text x="11.022" y="1.67" class="g">node</text><text x="16.032" y="1.67" class="g">remark42-mongodb.js</text><text x="36.072" y="1.67" class="g">posts</text><text x="42.084" y="1.67" class="g">create</text><text x="49.098" y="1.67" class="g">my-site</text><text x="57.114" y="1.67" class="g">http://localhos</text></svg><svg x="5040"><use xlink:href="#a"/><use xlink:href="#b" x="72.996"/><text y="1.67" class="f">user@pc</text><text x="7.014" y="1.67" class="g">:</text><text x="8.016" y="1.67" class="h">~</text><text x="9.018" y="1.67" class="g">$</text><text x="11.022" y="1.67" class="g">node</text><text x="16.032" y="1.67" class="g">remark42-mongodb.js</text><text x="36.072" y="1.67" class="g">posts</text><text x="42.084" y="1.67" class="g">create</text><text x="49.098" y="1.67" class="g">my-site</text><text x="57.114" y="1.67" class="g">http://localhost</text></svg><svg x="5120"><use xlink:href="#a"/><use xlink:href="#b" x="73.996"/><text y="1.67" class="f">user@pc</text><text x="7.014" y="1.67" class="g">:</text><text x="8.016" y="1.67" class="h">~</text><text x="9.018" y="1.67" class="g">$</text><text x="11.022" y="1.67" class="g">node</text><text x="16.032" y="1.67" class="g">remark42-mongodb.js</text><text x="36.072" y="1.67" class="g">posts</text><text x="42.084" y="1.67" class="g">create</text><text x="49.098" y="1.67" class="g">my-site</text><text x="57.114" y="1.67" class="g">http://localhost/</text></svg><svg x="5200"><use xlink:href="#a"/><use xlink:href="#b" x="74.996"/><text y="1.67" class="f">user@pc</text><text x="7.014" y="1.67" class="g">:</text><text x="8.016" y="1.67" class="h">~</text><text x="9.018" y="1.67" class="g">$</text><text x="11.022" y="1.67" class="g">node</text><text x="16.032" y="1.67" class="g">remark42-mongodb.js</text><text x="36.072" y="1.67" class="g">posts</text><text x="42.084" y="1.67" class="g">create</text><text x="49.098" y="1.67" class="g">my-site</text><text x="57.114" y="1.67" class="g">http://localhost/n</text></svg><svg x="5280"><use xlink:href="#a"/><use xlink:href="#b" x="75.996"/><text y="1.67" class="f">user@pc</text><text x="7.014" y="1.67" class="g">:</text><text x="8.016" y="1.67" class="h">~</text><text x="9.018" y="1.67" class="g">$</text><text x="11.022" y="1.67" class="g">node</text><text x="16.032" y="1.67" class="g">remark42-mongodb.js</text><text x="36.072" y="1.67" class="g">posts</text><text x="42.084" y="1.67" class="g">create</text><text x="49.098" y="1.67" class="g">my-site</text><text x="57.114" y="1.67" class="g">http://localhost/ne</text></svg><svg x="5360"><use xlink:href="#a"/><use xlink:href="#b" x="76.996"/><text y="1.67" class="f">user@pc</text><text x="7.014" y="1.67" class="g">:</text><text x="8.016" y="1.67" class="h">~</text><text x="9.018" y="1.67" class="g">$</text><text x="11.022" y="1.67" class="g">node</text><text x="16.032" y="1.67" class="g">remark42-mongodb.js</text><text x="36.072" y="1.67" class="g">posts</text><text x="42.084" y="1.67" class="g">create</text><text x="49.098" y="1.67" class="g">my-site</text><text x="57.114" y="1.67" class="g">http://localhost/new</text></svg><svg x="5440"><use xlink:href="#a"/><use xlink:href="#b" x="77.996"/><text y="1.67" class="f">user@pc</text><text x="7.014" y="1.67" class="g">:</text><text x="8.016" y="1.67" class="h">~</text><text x="9.018" y="1.67" class="g">$</text><text x="11.022" y="1.67" class="g">node</text><text x="16.032" y="1.67" class="g">remark42-mongodb.js</text><text x="36.072" y="1.67" class="g">posts</text><text x="42.084" y="1.67" class="g">create</text><text x="49.098" y="1.67" class="g">my-site</text><text x="57.114" y="1.67" class="g">http://localhost/new-</text></svg><svg x="5520"><use xlink:href="#a"/><use xlink:href="#b" x="78.996"/><text y="1.67" class="f">user@pc</text><text x="7.014" y="1.67" class="g">:</text><text x="8.016" y="1.67" class="h">~</text><text x="9.018" y="1.67" class="g">$</text><text x="11.022" y="1.67" class="g">node</text><text x="16.032" y="1.67" class="g">remark42-mongodb.js</text><text x="36.072" y="1.67" class="g">posts</text><text x="42.084" y="1.67" class="g">create</text><text x="49.098" y="1.67" class="g">my-site</text><text x="57.114" y="1.67" class="g">http://localhost/new-p</text></svg><svg x="5600"><use xlink:href="#a"/><use xlink:href="#b" x="79.996"/><use xlink:href="#7"/></svg><svg x="5680"><use xlink:href="#a"/><use xlink:href="#b" x=".996" y="2.146"/><use xlink:href="#7"/><text y="3.841" class="g">s</text></svg><svg x="5760"><use xlink:href="#a"/><use xlink:href="#b" x="1.996" y="2.146"/><use xlink:href="#7"/><use xlink:href="#8" y="2.171"/></svg><svg x="5840"><use xlink:href="#a"/><use xlink:href="#b" x="-.004" y="4.317"/><use xlink:href="#7"/><use xlink:href="#8" y="2.171"/></svg><svg x="5920"><use xlink:href="#a"/><use xlink:href="#b" x="-.004" y="6.488"/><use xlink:href="#7"/><use xlink:href="#8" y="2.171"/><use xlink:href="#9" y="4.342"/></svg><svg x="6000"><use xlink:href="#a"/><use xlink:href="#b" x="-.004" y="8.659"/><use xlink:href="#7"/><use xlink:href="#8" y="2.171"/><use xlink:href="#9" y="4.342"/><use xlink:href="#10" y="6.513"/></svg><svg x="6080"><use xlink:href="#a"/><use xlink:href="#b" x="17.996" y="8.659"/><use xlink:href="#7"/><use xlink:href="#8" y="2.171"/><use xlink:href="#9" y="4.342"/><use xlink:href="#10" y="6.513"/><text y="10.354" class="j">?</text><text x="2.004" y="10.354" class="k">Read</text><text x="7.014" y="10.354" class="k">only</text><text x="12.024" y="10.354" class="g">(y/N)</text></svg><svg x="6160"><use xlink:href="#a"/><use xlink:href="#b" x="-.004" y="8.659"/><use xlink:href="#7"/><use xlink:href="#8" y="2.171"/><use xlink:href="#9" y="4.342"/><use xlink:href="#10" y="6.513"/></svg><svg x="6240"><use xlink:href="#a"/><use xlink:href="#b" x="18.996" y="8.659"/><use xlink:href="#7"/><use xlink:href="#8" y="2.171"/><use xlink:href="#9" y="4.342"/><use xlink:href="#10" y="6.513"/><text y="10.354" class="j">?</text><text x="2.004" y="10.354" class="k">Read</text><text x="7.014" y="10.354" class="k">only</text><text x="12.024" y="10.354" class="g">(y/N)</text><text x="18.036" y="10.354" class="g">N</text></svg><svg x="6320"><use xlink:href="#a"/><use xlink:href="#b" x="-.004" y="8.659"/><use xlink:href="#7"/><use xlink:href="#8" y="2.171"/><use xlink:href="#9" y="4.342"/><use xlink:href="#10" y="6.513"/></svg><svg x="6400"><use xlink:href="#a"/><use xlink:href="#b" x="-.004" y="10.83"/><use xlink:href="#7"/><use xlink:href="#8" y="2.171"/><use xlink:href="#9" y="4.342"/><use xlink:href="#10" y="6.513"/><use xlink:href="#11" y="8.684"/></svg><svg x="6480"><use xlink:href="#a"/><use xlink:href="#b" x="-.004" y="13.001"/><use xlink:href="#7"/><use xlink:href="#8" y="2.171"/><use xlink:href="#9" y="4.342"/><use xlink:href="#10" y="6.513"/><use xlink:href="#11" y="8.684"/><use xlink:href="#12" y="10.855"/></svg><svg x="6560"><use xlink:href="#a"/><use xlink:href="#b" x="10.996" y="13.001"/><use xlink:href="#7"/><use xlink:href="#8" y="2.171"/><use xlink:href="#9" y="4.342"/><use xlink:href="#10" y="6.513"/><use xlink:href="#11" y="8.684"/><use xlink:href="#12" y="10.855"/><use xlink:href="#1" y="13.026"/></svg><svg x="6640"><use xlink:href="#a"/><use xlink:href="#b" x="-.004" y="15.172"/><use xlink:href="#7"/><use xlink:href="#8" y="2.171"/><use xlink:href="#9" y="4.342"/><use xlink:href="#10" y="6.513"/><use xlink:href="#11" y="8.684"/><use xlink:href="#12" y="10.855"/><use xlink:href="#13" y="13.026"/></svg><svg x="6720"><use xlink:href="#a"/><use xlink:href="#b" x="-.004" y="17.343"/><use xlink:href="#7"/><use xlink:href="#8" y="2.171"/><use xlink:href="#9" y="4.342"/><use xlink:href="#10" y="6.513"/><use xlink:href="#11" y="8.684"/><use xlink:href="#12" y="10.855"/><use xlink:href="#13" y="13.026"/></svg></svg></g></g></svg></svg>