<svg xmlns="http://www.w3.org/2000/svg" xmlns:xlink="http://www.w3.org/1999/xlink" width="840" height="385.65"><rect width="840" height="385.65" rx="5" ry="5" class="a"/><svg y="0%" x="0%"><circle cx="20" cy="20" r="6" fill="#ff5f58"/><circle cx="40" cy="20" r="6" fill="#ffbd2e"/><circle cx="60" cy="20" r="6" fill="#18c132"/></svg><svg height="325.65" viewBox="0 0 80 32.565" width="800" x="15" xmlns="http://www.w3.org/2000/svg" xmlns:xlink="http://www.w3.org/1999/xlink" y="50"><style>@keyframes n{0%{transform:translateX(0)}.92%{transform:translateX(-80px)}5.02%{transform:translateX(-160px)}5.52%{transform:translateX(-240px)}5.89%{transform:translateX(-320px)}6.44%{transform:translateX(-400px)}8.3%{transform:translateX(-480px)}8.92%{transform:translateX(-560px)}9.2%{transform:translateX(-640px)}9.99%{transform:translateX(-720px)}10.47%{transform:translateX(-800px)}10.88%{transform:translateX(-880px)}11.27%{transform:translateX(-960px)}13.15%{transform:translateX(-1040px)}13.39%{transform:translateX(-1120px)}14.09%{transform:translateX(-1200px)}15.42%{transform:translateX(-1280px)}15.92%{transform:translateX(-1360px)}16.51%{transform:translateX(-1440px)}16.91%{transform:translateX(-1520px)}19.06%{transform:translateX(-1600px)}19.82%{transform:translateX(-1680px)}20.2%{transform:translateX(-1760px)}21.04%{transform:translateX(-1840px)}22.8%{transform:translateX(-1920px)}26.9%{transform:translateX(-2000px)}27.9%{transform:translateX(-2080px)}30.59%{transform:translateX(-2160px)}31.05%{transform:translateX(-2240px)}31.4%{transform:translateX(-2320px)}31.7%{transform:translateX(-2400px)}34.27%{transform:translateX(-2480px)}38.37%{transform:translateX(-2560px)}38.42%{transform:translateX(-2640px)}38.43%{transform:translateX(-2720px)}42.53%{transform:translateX(-2880px)}43.6%{transform:translateX(-3040px)}44.21%{transform:translateX(-3200px)}45.09%{transform:translateX(-3280px)}46.14%{transform:translateX(-3440px)}46.15%{transform:translateX(-3520px)}49.69%{transform:translateX(-3600px)}49.7%{transform:translateX(-3680px)}52.75%{transform:translateX(-3840px)}52.92%{transform:translateX(-3920px)}53.61%{transform:translateX(-4000px)}54.11%{transform:translateX(-4080px)}54.54%{transform:translateX(-4160px)}54.55%{transform:translateX(-4240px)}54.96%{transform:translateX(-4320px)}55.91%{transform:translateX(-4400px)}56.49%{transform:translateX(-4560px)}56.84%{transform:translateX(-4720px)}57.32%{transform:translateX(-4880px)}58.11%{transform:translateX(-4960px)}58.46%{transform:translateX(-5040px)}58.94%{transform:translateX(-5120px)}59.37%{transform:translateX(-5280px)}60.57%{transform:translateX(-5360px)}60.58%{transform:translateX(-5440px)}63.47%{transform:translateX(-5600px)}63.48%{transform:translateX(-5680px)}66.12%{transform:translateX(-5760px)}66.13%{transform:translateX(-5840px)}69%{transform:translateX(-6000px)}72.13%{transform:translateX(-6160px)}72.14%{transform:translateX(-6240px)}75.27%{transform:translateX(-6400px)}75.29%{transform:translateX(-6480px)}75.31%{transform:translateX(-6560px)}79.41%{transform:translateX(-6640px)}to{transform:translateX(-6720px)}}.a{fill:#282d35}.f{fill:#a8cc8c;font-weight:700;white-space:pre}.g{fill:#b9c0cb}.g,.h,.i,.j,.k{white-space:pre}.h{fill:#71bef2;font-weight:700}.i,.j,.k{fill:#66c2cd}.j,.k{fill:#a8cc8c}.k{fill:#b9c0cb;font-weight:700}</style><g font-family="Monaco,Consolas,Menlo,'Bitstream Vera Sans Mono','Powerline Symbols',monospace" font-size="1.67"><defs><symbol id="1"><text y="1.67" class="f">user@pc</text><text x="7.014" y="1.67" class="g">:</text><text x="8.016" y="1.67" class="h">~</text><text x="9.018" y="1.67" class="g">$</text></symbol><symbol id="2"><text y="1.67" class="f">user@pc</text><text x="7.014" y="1.67" class="g">:</text><text x="8.016" y="1.67" class="h">~</text><text x="9.018" y="1.67" class="g">$</text><text x="11.022" y="1.67" class="g">node</text></symbol><symbol id="3"><text y="1.67" class="f">user@pc</text><text x="7.014" y="1.67" class="g">:</text><text x="8.016" y="1.67" class="h">~</text><text x="9.018" y="1.67" class="g">$</text><text x="11.022" y="1.67" class="g">node</text><text x="16.032" y="1.67" class="g">remark42-mongodb.js</text></symbol><symbol id="4"><text y="1.67" class="f">user@pc</text><text x="7.014" y="1.67" class="g">:</text><text x="8.016" y="1.67" class="h">~</text><text x="9.018" y="1.67" class="g">$</text><text x="11.022" y="1.67" class="g">node</text><text x="16.032" y="1.67" class="g">remark42-mongodb.js</text><text x="36.072" y="1.67" class="g">init</text></symbol><symbol id="5"><text y="1.67" class="i">Remark42</text><text x="9.018" y="1.67" class="i">MongoDB</text><text x="17.034" y="1.67" class="i">Server</text><text x="24.048" y="1.67" class="i">v0.1.0</text></symbol><symbol id="6"><text y="1.67" class="j">?</text><text x="2.004" y="1.67" class="k">Server</text><text x="9.018" y="1.67" class="k">port</text><text x="14.028" y="1.67" class="g">(9000)</text></symbol><symbol id="7"><text y="1.67" class="j">?</text><text x="2.004" y="1.67" class="k">Server</text><text x="9.018" y="1.67" class="k">port</text><text x="14.028" y="1.67" class="g">9</text></symbol><symbol id="8"><text y="1.67" class="j">?</text><text x="2.004" y="1.67" class="k">Server</text><text x="9.018" y="1.67" class="k">port</text><text x="14.028" y="1.67" class="g">91</text></symbol><symbol id="9"><text y="1.67" class="j">?</text><text x="2.004" y="1.67" class="k">Server</text><text x="9.018" y="1.67" class="k">port</text><text x="14.028" y="1.67" class="g">910</text></symbol><symbol id="10"><text y="1.67" class="j">?</text><text x="2.004" y="1.67" class="k">Server</text><text x="9.018" y="1.67" class="k">port</text><text x="14.028" y="1.67" class="i">9100</text></symbol><symbol id="11"><text y="1.67" class="j">?</text><text x="2.004" y="1.67" class="k">MongoDB</text><text x="10.02" y="1.67" class="k">connection</text><text x="21.042" y="1.67" class="k">string</text><text x="28.056" y="1.67" class="i">mongodb://127.0.0.1:27017/remark42-mongodb</text></symbol><symbol id="12"><text y="1.67" class="j">?</text><text x="2.004" y="1.67" class="k">Avatars</text><text x="10.02" y="1.67" class="k">GridFS</text><text x="17.034" y="1.67" class="k">bucket</text><text x="24.048" y="1.67" class="k">name</text><text x="29.058" y="1.67" class="g">r</text></symbol><symbol id="13"><text y="1.67" class="j">?</text><text x="2.004" y="1.67" class="k">Avatars</text><text x="10.02" y="1.67" class="k">GridFS</text><text x="17.034" y="1.67" class="k">bucket</text><text x="24.048" y="1.67" class="k">name</text><text x="29.058" y="1.67" class="g">remark_a</text></symbol><symbol id="14"><text y="1.67" class="j">?</text><text x="2.004" y="1.67" class="k">Avatars</text><text x="10.02" y="1.67" class="k">GridFS</text><text x="17.034" y="1.67" class="k">bucket</text><text x="24.048" y="1.67" class="k">name</text><text x="29.058" y="1.67" class="g">remark_ava</text></symbol><symbol id="15"><text y="1.67" class="j">?</text><text x="2.004" y="1.67" class="k">Avatars</text><text x="10.02" y="1.67" class="k">GridFS</text><text x="17.034" y="1.67" class="k">bucket</text><text x="24.048" y="1.67" class="k">name</text><text x="29.058" y="1.67" class="i">remark_avatars</text></symbol><symbol id="16"><text y="1.67" class="j">?</text><text x="2.004" y="1.67" class="k">Body</text><text x="7.014" y="1.67" class="k">maximum</text><text x="15.03" y="1.67" class="k">size</text><text x="20.04" y="1.67" class="i">8mb</text></symbol><symbol id="17"><text y="1.67" class="j">?</text><text x="2.004" y="1.67" class="k">Create</text><text x="9.018" y="1.67" class="k">posts</text><text x="15.03" y="1.67" class="k">dynamically</text><text x="27.054" y="1.67" class="i">true</text></symbol><symbol id="18"><text y="1.67" class="j">?</text><text x="2.004" y="1.67" class="k">Log</text><text x="6.012" y="1.67" class="k">folder</text><text x="13.026" y="1.67" class="k">path</text><text x="18.036" y="1.67" class="i">logs</text></symbol><symbol id="19"><text y="1.67" class="j">?</text><text x="2.004" y="1.67" class="k">Log</text><text x="6.012" y="1.67" class="k">files</text><text x="12.024" y="1.67" class="k">maximum</text><text x="20.04" y="1.67" class="k">size</text><text x="25.05" y="1.67" class="k">(e.g.</text><text x="31.062" y="1.67" class="k">1k,</text><text x="35.07" y="1.67" class="k">1m,</text><text x="39.078" y="1.67" class="k">1g)</text><text x="43.086" y="1.67" class="i">8m</text></symbol><symbol id="20"><text y="1.67" class="j">?</text><text x="2.004" y="1.67" class="k">Maximum</text><text x="10.02" y="1.67" class="k">number</text><text x="17.034" y="1.67" class="k">of</text><text x="20.04" y="1.67" class="k">logs</text><text x="25.05" y="1.67" class="k">to</text><text x="28.056" y="1.67" class="k">keep</text><text x="33.066" y="1.67" class="k">in</text><text x="36.072" y="1.67" class="k">days.</text><text x="42.084" y="1.67" class="k">If</text><text x="45.09" y="1.67" class="k">negative,</text><text x="55.11" y="1.67" class="k">no</text><text x="58.116" y="1.67" class="k">logs</text><text x="63.126" y="1.67" class="k">will</text><text x="68.136" y="1.67" class="k">be</text><text x="71.142" y="1.67" class="k">removed.</text></symbol><symbol id="21"><text y="1.67" class="i">30</text></symbol><symbol id="22"><text y="1.67" class="j">Written</text><text x="8.016" y="1.67" class="j">config</text><text x="15.03" y="1.67" class="j">file</text><text x="20.04" y="1.67" class="j">&apos;remark42-mongodb.json&apos;.</text></symbol><symbol id="23"><text y="1.67" class="f">user@pc</text><text x="7.014" y="1.67" class="g">:</text><text x="8.016" y="1.67" class="h">~</text><text x="9.018" y="1.67" class="g">$</text><text x="11.022" y="1.67" class="g">exit</text></symbol><symbol id="a"><path fill="transparent" d="M0 0h80v15H0z"/></symbol><symbol id="b"><path fill="#6f7683" d="M0 0h1.102v2.171H0z"/></symbol></defs><path class="a" d="M0 0h80v32.565H0z"/><g style="animation-duration:24.406117s;animation-iteration-count:infinite;animation-name:n;animation-timing-function:steps(1,end)"><svg width="6800"><svg><use xlink:href="#a"/><use xlink:href="#b" x="-.004"/></svg><svg x="80"><use xlink:href="#a"/><use xlink:href="#b" x="10.996"/><use xlink:href="#1"/></svg><svg x="160"><use xlink:href="#a"/><use xlink:href="#b" x="11.996"/><text y="1.67" class="f">user@pc</text><text x="7.014" y="1.67" class="g">:</text><text x="8.016" y="1.67" class="h">~</text><text x="9.018" y="1.67" class="g">$</text><text x="11.022" y="1.67" class="g">n</text></svg><svg x="240"><use xlink:href="#a"/><use xlink:href="#b" x="12.996"/><text y="1.67" class="f">user@pc</text><text x="7.014" y="1.67" class="g">:</text><text x="8.016" y="1.67" class="h">~</text><text x="9.018" y="1.67" class="g">$</text><text x="11.022" y="1.67" class="g">no</text></svg><svg x="320"><use xlink:href="#a"/><use xlink:href="#b" x="13.996"/><text y="1.67" class="f">user@pc</text><text x="7.014" y="1.67" class="g">:</text><text x="8.016" y="1.67" class="h">~</text><text x="9.018" y="1.67" class="g">$</text><text x="11.022" y="1.67" class="g">nod</text></svg><svg x="400"><use xlink:href="#a"/><use xlink:href="#b" x="14.996"/><use xlink:href="#2"/></svg><svg x="480"><use xlink:href="#a"/><use xlink:href="#b" x="15.996"/><use xlink:href="#2"/></svg><svg x="560"><use xlink:href="#a"/><use xlink:href="#b" x="16.996"/><text y="1.67" class="f">user@pc</text><text x="7.014" y="1.67" class="g">:</text><text x="8.016" y="1.67" class="h">~</text><text x="9.018" y="1.67" class="g">$</text><text x="11.022" y="1.67" class="g">node</text><text x="16.032" y="1.67" class="g">r</text></svg><svg x="640"><use xlink:href="#a"/><use xlink:href="#b" x="17.996"/><text y="1.67" class="f">user@pc</text><text x="7.014" y="1.67" class="g">:</text><text x="8.016" y="1.67" class="h">~</text><text x="9.018" y="1.67" class="g">$</text><text x="11.022" y="1.67" class="g">node</text><text x="16.032" y="1.67" class="g">re</text></svg><svg x="720"><use xlink:href="#a"/><use xlink:href="#b" x="18.996"/><text y="1.67" class="f">user@pc</text><text x="7.014" y="1.67" class="g">:</text><text x="8.016" y="1.67" class="h">~</text><text x="9.018" y="1.67" class="g">$</text><text x="11.022" y="1.67" class="g">node</text><text x="16.032" y="1.67" class="g">rem</text></svg><svg x="800"><use xlink:href="#a"/><use xlink:href="#b" x="19.996"/><text y="1.67" class="f">user@pc</text><text x="7.014" y="1.67" class="g">:</text><text x="8.016" y="1.67" class="h">~</text><text x="9.018" y="1.67" class="g">$</text><text x="11.022" y="1.67" class="g">node</text><text x="16.032" y="1.67" class="g">rema</text></svg><svg x="880"><use xlink:href="#a"/><use xlink:href="#b" x="20.996"/><text y="1.67" class="f">user@pc</text><text x="7.014" y="1.67" class="g">:</text><text x="8.016" y="1.67" class="h">~</text><text x="9.018" y="1.67" class="g">$</text><text x="11.022" y="1.67" class="g">node</text><text x="16.032" y="1.67" class="g">remar</text></svg><svg x="960"><use xlink:href="#a"/><use xlink:href="#b" x="21.996"/><text y="1.67" class="f">user@pc</text><text x="7.014" y="1.67" class="g">:</text><text x="8.016" y="1.67" class="h">~</text><text x="9.018" y="1.67" class="g">$</text><text x="11.022" y="1.67" class="g">node</text><text x="16.032" y="1.67" class="g">remark</text></svg><svg x="1040"><use xlink:href="#a"/><use xlink:href="#b" x="22.996"/><text y="1.67" class="f">user@pc</text><text x="7.014" y="1.67" class="g">:</text><text x="8.016" y="1.67" class="h">~</text><text x="9.018" y="1.67" class="g">$</text><text x="11.022" y="1.67" class="g">node</text><text x="16.032" y="1.67" class="g">remark4</text></svg><svg x="1120"><use xlink:href="#a"/><use xlink:href="#b" x="23.996"/><text y="1.67" class="f">user@pc</text><text x="7.014" y="1.67" class="g">:</text><text x="8.016" y="1.67" class="h">~</text><text x="9.018" y="1.67" class="g">$</text><text x="11.022" y="1.67" class="g">node</text><text x="16.032" y="1.67" class="g">remark42</text></svg><svg x="1200"><use xlink:href="#a"/><use xlink:href="#b" x="24.996"/><text y="1.67" class="f">user@pc</text><text x="7.014" y="1.67" class="g">:</text><text x="8.016" y="1.67" class="h">~</text><text x="9.018" y="1.67" class="g">$</text><text x="11.022" y="1.67" class="g">node</text><text x="16.032" y="1.67" class="g">remark42-</text></svg><svg x="1280"><use xlink:href="#a"/><use xlink:href="#b" x="25.996"/><text y="1.67" class="f">user@pc</text><text x="7.014" y="1.67" class="g">:</text><text x="8.016" y="1.67" class="h">~</text><text x="9.018" y="1.67" class="g">$</text><text x="11.022" y="1.67" class="g">node</text><text x="16.032" y="1.67" class="g">remark42-m</text></svg><svg x="1360"><use xlink:href="#a"/><use xlink:href="#b" x="26.996"/><text y="1.67" class="f">user@pc</text><text x="7.014" y="1.67" class="g">:</text><text x="8.016" y="1.67" class="h">~</text><text x="9.018" y="1.67" class="g">$</text><text x="11.022" y="1.67" class="g">node</text><text x="16.032" y="1.67" class="g">remark42-mo</text></svg><svg x="1440"><use xlink:href="#a"/><use xlink:href="#b" x="27.996"/><text y="1.67" class="f">user@pc</text><text x="7.014" y="1.67" class="g">:</text><text x="8.016" y="1.67" class="h">~</text><text x="9.018" y="1.67" class="g">$</text><text x="11.022" y="1.67" class="g">node</text><text x="16.032" y="1.67" class="g">remark42-mon</text></svg><svg x="1520"><use xlink:href="#a"/><use xlink:href="#b" x="28.996"/><text y="1.67" class="f">user@pc</text><text x="7.014" y="1.67" class="g">:</text><text x="8.016" y="1.67" class="h">~</text><text x="9.018" y="1.67" class="g">$</text><text x="11.022" y="1.67" class="g">node</text><text x="16.032" y="1.67" class="g">remark42-mong</text></svg><svg x="1600"><use xlink:href="#a"/><use xlink:href="#b" x="29.996"/><text y="1.67" class="f">user@pc</text><text x="7.014" y="1.67" class="g">:</text><text x="8.016" y="1.67" class="h">~</text><text x="9.018" y="1.67" class="g">$</text><text x="11.022" y="1.67" class="g">node</text><text x="16.032" y="1.67" class="g">remark42-mongo</text></svg><svg x="1680"><use xlink:href="#a"/><use xlink:href="#b" x="30.996"/><text y="1.67" class="f">user@pc</text><text x="7.014" y="1.67" class="g">:</text><text x="8.016" y="1.67" class="h">~</text><text x="9.018" y="1.67" class="g">$</text><text x="11.022" y="1.67" class="g">node</text><text x="16.032" y="1.67" class="g">remark42-mongod</text></svg><svg x="1760"><use xlink:href="#a"/><use xlink:href="#b" x="31.996"/><text y="1.67" class="f">user@pc</text><text x="7.014" y="1.67" class="g">:</text><text x="8.016" y="1.67" class="h">~</text><text x="9.018" y="1.67" class="g">$</text><text x="11.022" y="1.67" class="g">node</text><text x="16.032" y="1.67" class="g">remark42-mongodb</text></svg><svg x="1840"><use xlink:href="#a"/><use xlink:href="#b" x="32.996"/><text y="1.67" class="f">user@pc</text><text x="7.014" y="1.67" class="g">:</text><text x="8.016" y="1.67" class="h">~</text><text x="9.018" y="1.67" class="g">$</text><text x="11.022" y="1.67" class="g">node</text><text x="16.032" y="1.67" class="g">remark42-mongodb.</text></svg><svg x="1920"><use xlink:href="#a"/><use xlink:href="#b" x="33.996"/><text y="1.67" class="f">user@pc</text><text x="7.014" y="1.67" class="g">:</text><text x="8.016" y="1.67" class="h">~</text><text x="9.018" y="1.67" class="g">$</text><text x="11.022" y="1.67" class="g">node</text><text x="16.032" y="1.67" class="g">remark42-mongodb.j</text></svg><svg x="2000"><use xlink:href="#a"/><use xlink:href="#b" x="34.996"/><use xlink:href="#3"/></svg><svg x="2080"><use xlink:href="#a"/><use xlink:href="#b" x="35.996"/><use xlink:href="#3"/></svg><svg x="2160"><use xlink:href="#a"/><use xlink:href="#b" x="36.996"/><text y="1.67" class="f">user@pc</text><text x="7.014" y="1.67" class="g">:</text><text x="8.016" y="1.67" class="h">~</text><text x="9.018" y="1.67" class="g">$</text><text x="11.022" y="1.67" class="g">node</text><text x="16.032" y="1.67" class="g">remark42-mongodb.js</text><text x="36.072" y="1.67" class="g">i</text></svg><svg x="2240"><use xlink:href="#a"/><use xlink:href="#b" x="37.996"/><text y="1.67" class="f">user@pc</text><text x="7.014" y="1.67" class="g">:</text><text x="8.016" y="1.67" class="h">~</text><text x="9.018" y="1.67" class="g">$</text><text x="11.022" y="1.67" class="g">node</text><text x="16.032" y="1.67" class="g">remark42-mongodb.js</text><text x="36.072" y="1.67" class="g">in</text></svg><svg x="2320"><use xlink:href="#a"/><use xlink:href="#b" x="38.996"/><text y="1.67" class="f">user@pc</text><text x="7.014" y="1.67" class="g">:</text><text x="8.016" y="1.67" class="h">~</text><text x="9.018" y="1.67" class="g">$</text><text x="11.022" y="1.67" class="g">node</text><text x="16.032" y="1.67" class="g">remark42-mongodb.js</text><text x="36.072" y="1.67" class="g">ini</text></svg><svg x="2400"><use xlink:href="#a"/><use xlink:href="#b" x="39.996"/><use xlink:href="#4"/></svg><svg x="2480"><use xlink:href="#a"/><use xlink:href="#b" x="-.004" y="2.146"/><use xlink:href="#4"/></svg><svg x="2560"><use xlink:href="#a"/><use xlink:href="#b" x="-.004" y="4.317"/><use xlink:href="#4"/><use xlink:href="#5" y="2.171"/></svg><svg x="2640"><use xlink:href="#a"/><use xlink:href="#b" x="20.996" y="4.317"/><use xlink:href="#4"/><use xlink:href="#5" y="2.171"/><use xlink:href="#6" y="4.342"/></svg><svg x="2720"><use xlink:href="#a"/><use xlink:href="#b" x="20.996" y="4.317"/><use xlink:href="#4"/><use xlink:href="#5" y="2.171"/><use xlink:href="#6" y="4.342"/></svg><svg x="2800"><use xlink:href="#a"/><use xlink:href="#b" x="14.996" y="4.317"/><use xlink:href="#4"/><use xlink:href="#5" y="2.171"/><use xlink:href="#7" y="4.342"/></svg><svg x="2880"><use xlink:href="#a"/><use xlink:href="#b" x="14.996" y="4.317"/><use xlink:href="#4"/><use xlink:href="#5" y="2.171"/><use xlink:href="#7" y="4.342"/></svg><svg x="2960"><use xlink:href="#a"/><use xlink:href="#b" x="-.004" y="4.317"/><use xlink:href="#4"/><use xlink:href="#5" y="2.171"/><use xlink:href="#8" y="4.342"/></svg><svg x="3040"><use xlink:href="#a"/><use xlink:href="#b" x="15.996" y="4.317"/><use xlink:href="#4"/><use xlink:href="#5" y="2.171"/><use xlink:href="#8" y="4.342"/></svg><svg x="3120"><use xlink:href="#a"/><use xlink:href="#b" x="-.004" y="4.317"/><use xlink:href="#4"/><use xlink:href="#5" y="2.171"/><use xlink:href="#9" y="4.342"/></svg><svg x="3200"><use xlink:href="#a"/><use xlink:href="#b" x="16.996" y="4.317"/><use xlink:href="#4"/><use xlink:href="#5" y="2.171"/><use xlink:href="#9" y="4.342"/></svg><svg x="3280"><use xlink:href="#a"/><use xlink:href="#b" x="17.996" y="4.317"/><use xlink:href="#4"/><use xlink:href="#5" y="2.171"/><text y="6.012" class="j">?</text><text x="2.004" y="6.012" class="k">Server</text><text x="9.018" y="6.012" class="k">port</text><text x="14.028" y="6.012" class="g">9100</text></svg><svg x="3360"><use xlink:href="#a"/><use xlink:href="#b" x="17.996" y="4.317"/><use xlink:href="#4"/><use xlink:href="#5" y="2.171"/><use xlink:href="#10" y="4.342"/></svg><svg x="3440"><use xlink:href="#a"/><use xlink:href="#b" x="-.004" y="6.488"/><use xlink:href="#4"/><use xlink:href="#5" y="2.171"/><use xlink:href="#10" y="4.342"/></svg><svg x="3520"><use xlink:href="#a"/><use xlink:href="#b" x="72.996" y="6.488"/><use xlink:href="#4"/><use xlink:href="#5" y="2.171"/><use xlink:href="#10" y="4.342"/><text y="8.183" class="j">?</text><text x="2.004" y="8.183" class="k">MongoDB</text><text x="10.02" y="8.183" class="k">connection</text><text x="21.042" y="8.183" class="k">string</text><text x="28.056" y="8.183" class="g">(mongodb://127.0.0.1:27017/remark42-mongodb)</text></svg><svg x="3600"><use xlink:href="#a"/><use xlink:href="#b" x="-.004" y="8.659"/><use xlink:href="#4"/><use xlink:href="#5" y="2.171"/><use xlink:href="#10" y="4.342"/><use xlink:href="#11" y="6.513"/></svg><svg x="3680"><use xlink:href="#a"/><use xlink:href="#b" x="28.996" y="8.659"/><use xlink:href="#4"/><use xlink:href="#5" y="2.171"/><use xlink:href="#10" y="4.342"/><use xlink:href="#11" y="6.513"/><text y="10.354" class="j">?</text><text x="2.004" y="10.354" class="k">Avatars</text><text x="10.02" y="10.354" class="k">GridFS</text><text x="17.034" y="10.354" class="k">bucket</text><text x="24.048" y="10.354" class="k">name</text></svg><svg x="3760"><use xlink:href="#a"/><use xlink:href="#b" x="29.996" y="8.659"/><use xlink:href="#4"/><use xlink:href="#5" y="2.171"/><use xlink:href="#10" y="4.342"/><use xlink:href="#11" y="6.513"/><use xlink:href="#12" y="8.684"/></svg><svg x="3840"><use xlink:href="#a"/><use xlink:href="#b" x="29.996" y="8.659"/><use xlink:href="#4"/><use xlink:href="#5" y="2.171"/><use xlink:href="#10" y="4.342"/><use xlink:href="#11" y="6.513"/><use xlink:href="#12" y="8.684"/></svg><svg x="3920"><use xlink:href="#a"/><use xlink:href="#b" x="30.996" y="8.659"/><use xlink:href="#4"/><use xlink:href="#5" y="2.171"/><use xlink:href="#10" y="4.342"/><use xlink:href="#11" y="6.513"/><text y="10.354" class="j">?</text><text x="2.004" y="10.354" class="k">Avatars</text><text x="10.02" y="10.354" class="k">GridFS</text><text x="17.034" y="10.354" class="k">bucket</text><text x="24.048" y="10.354" class="k">name</text><text x="29.058" y="10.354" class="g">re</text></svg><svg x="4000"><use xlink:href="#a"/><use xlink:href="#b" x="31.996" y="8.659"/><use xlink:href="#4"/><use xlink:href="#5" y="2.171"/><use xlink:href="#10" y="4.342"/><use xlink:href="#11" y="6.513"/><text y="10.354" class="j">?</text><text x="2.004" y="10.354" class="k">Avatars</text><text x="10.02" y="10.354" class="k">GridFS</text><text x="17.034" y="10.354" class="k">bucket</text><text x="24.048" y="10.354" class="k">name</text><text x="29.058" y="10.354" class="g">rem</text></svg><svg x="4080"><use xlink:href="#a"/><use xlink:href="#b" x="32.996" y="8.659"/><use xlink:href="#4"/><use xlink:href="#5" y="2.171"/><use xlink:href="#10" y="4.342"/><use xlink:href="#11" y="6.513"/><text y="10.354" class="j">?</text><text x="2.004" y="10.354" class="k">Avatars</text><text x="10.02" y="10.354" class="k">GridFS</text><text x="17.034" y="10.354" class="k">bucket</text><text x="24.048" y="10.354" class="k">name</text><text x="29.058" y="10.354" class="g">rema</text></svg><svg x="4160"><use xlink:href="#a"/><use xlink:href="#b" x="-.004" y="8.659"/><use xlink:href="#4"/><use xlink:href="#5" y="2.171"/><use xlink:href="#10" y="4.342"/><use xlink:href="#11" y="6.513"/></svg><svg x="4240"><use xlink:href="#a"/><use xlink:href="#b" x="33.996" y="8.659"/><use xlink:href="#4"/><use xlink:href="#5" y="2.171"/><use xlink:href="#10" y="4.342"/><use xlink:href="#11" y="6.513"/><text y="10.354" class="j">?</text><text x="2.004" y="10.354" class="k">Avatars</text><text x="10.02" y="10.354" class="k">GridFS</text><text x="17.034" y="10.354" class="k">bucket</text><text x="24.048" y="10.354" class="k">name</text><text x="29.058" y="10.354" class="g">remar</text></svg><svg x="4320"><use xlink:href="#a"/><use xlink:href="#b" x="34.996" y="8.659"/><use xlink:href="#4"/><use xlink:href="#5" y="2.171"/><use xlink:href="#10" y="4.342"/><use xlink:href="#11" y="6.513"/><text y="10.354" class="j">?</text><text x="2.004" y="10.354" class="k">Avatars</text><text x="10.02" y="10.354" class="k">GridFS</text><text x="17.034" y="10.354" class="k">bucket</text><text x="24.048" y="10.354" class="k">name</text><text x="29.058" y="10.354" class="g">remark</text></svg><svg x="4400"><use xlink:href="#a"/><use xlink:href="#b" x="35.996" y="8.659"/><use xlink:href="#4"/><use xlink:href="#5" y="2.171"/><use xlink:href="#10" y="4.342"/><use xlink:href="#11" y="6.513"/><text y="10.354" class="j">?</text><text x="2.004" y="10.354" class="k">Avatars</text><text x="10.02" y="10.354" class="k">GridFS</text><text x="17.034" y="10.354" class="k">bucket</text><text x="24.048" y="10.354" class="k">name</text><text x="29.058" y="10.354" class="g">remark_</text></svg><svg x="4480"><use xlink:href="#a"/><use xlink:href="#b" x="36.996" y="8.659"/><use xlink:href="#4"/><use xlink:href="#5" y="2.171"/><use xlink:href="#10" y="4.342"/><use xlink:href="#11" y="6.513"/><use xlink:href="#13" y="8.684"/></svg><svg x="4560"><use xlink:href="#a"/><use xlink:href="#b" x="36.996" y="8.659"/><use xlink:href="#4"/><use xlink:href="#5" y="2.171"/><use xlink:href="#10" y="4.342"/><use xlink:href="#11" y="6.513"/><use xlink:href="#13" y="8.684"/></svg><svg x="4640"><use xlink:href="#a"/><use xlink:href="#b" x="-.004" y="8.659"/><use xlink:href="#4"/><use xlink:href="#5" y="2.171"/><use xlink:href="#10" y="4.342"/><use xlink:href="#11" y="6.513"/></svg><svg x="4720"><use xlink:href="#a"/><use xlink:href="#b" x="37.996" y="8.659"/><use xlink:href="#4"/><use xlink:href="#5" y="2.171"/><use xlink:href="#10" y="4.342"/><use xlink:href="#11" y="6.513"/><text y="10.354" class="j">?</text><text x="2.004" y="10.354" class="k">Avatars</text><text x="10.02" y="10.354" class="k">GridFS</text><text x="17.034" y="10.354" class="k">bucket</text><text x="24.048" y="10.354" class="k">name</text><text x="29.058" y="10.354" class="g">remark_av</text></svg><svg x="4800"><use xlink:href="#a"/><use xlink:href="#b" x="-.004" y="8.659"/><use xlink:href="#4"/><use xlink:href="#5" y="2.171"/><use xlink:href="#10" y="4.342"/><use xlink:href="#11" y="6.513"/><use xlink:href="#14" y="8.684"/></svg><svg x="4880"><use xlink:href="#a"/><use xlink:href="#b" x="38.996" y="8.659"/><use xlink:href="#4"/><use xlink:href="#5" y="2.171"/><use xlink:href="#10" y="4.342"/><use xlink:href="#11" y="6.513"/><use xlink:href="#14" y="8.684"/></svg><svg x="4960"><use xlink:href="#a"/><use xlink:href="#b" x="39.996" y="8.659"/><use xlink:href="#4"/><use xlink:href="#5" y="2.171"/><use xlink:href="#10" y="4.342"/><use xlink:href="#11" y="6.513"/><text y="10.354" class="j">?</text><text x="2.004" y="10.354" class="k">Avatars</text><text x="10.02" y="10.354" class="k">GridFS</text><text x="17.034" y="10.354" class="k">bucket</text><text x="24.048" y="10.354" class="k">name</text><text x="29.058" y="10.354" class="g">remark_avat</text></svg><svg x="5040"><use xlink:href="#a"/><use xlink:href="#b" x="40.996" y="8.659"/><use xlink:href="#4"/><use xlink:href="#5" y="2.171"/><use xlink:href="#10" y="4.342"/><use xlink:href="#11" y="6.513"/><text y="10.354" class="j">?</text><text x="2.004" y="10.354" class="k">Avatars</text><text x="10.02" y="10.354" class="k">GridFS</text><text x="17.034" y="10.354" class="k">bucket</text><text x="24.048" y="10.354" class="k">name</text><text x="29.058" y="10.354" class="g">remark_avata</text></svg><svg x="5120"><use xlink:href="#a"/><use xlink:href="#b" x="41.996" y="8.659"/><use xlink:href="#4"/><use xlink:href="#5" y="2.171"/><use xlink:href="#10" y="4.342"/><use xlink:href="#11" y="6.513"/><text y="10.354" class="j">?</text><text x="2.004" y="10.354" class="k">Avatars</text><text x="10.02" y="10.354" class="k">GridFS</text><text x="17.034" y="10.354" class="k">bucket</text><text x="24.048" y="10.354" class="k">name</text><text x="29.058" y="10.354" class="g">remark_avatar</text></svg><svg x="5200"><use xlink:href="#a"/><use xlink:href="#b" x="-.004" y="8.659"/><use xlink:href="#4"/><use xlink:href="#5" y="2.171"/><use xlink:href="#10" y="4.342"/><use xlink:href="#11" y="6.513"/></svg><svg x="5280"><use xlink:href="#a"/><use xlink:href="#b" x="42.996" y="8.659"/><use xlink:href="#4"/><use xlink:href="#5" y="2.171"/><use xlink:href="#10" y="4.342"/><use xlink:href="#11" y="6.513"/><text y="10.354" class="j">?</text><text x="2.004" y="10.354" class="k">Avatars</text><text x="10.02" y="10.354" class="k">GridFS</text><text x="17.034" y="10.354" class="k">bucket</text><text x="24.048" y="10.354" class="k">name</text><text x="29.058" y="10.354" class="g">remark_avatars</text></svg><svg x="5360"><use xlink:href="#a"/><use xlink:href="#b" x="-.004" y="10.83"/><use xlink:href="#4"/><use xlink:href="#5" y="2.171"/><use xlink:href="#10" y="4.342"/><use xlink:href="#11" y="6.513"/><use xlink:href="#15" y="8.684"/></svg><svg x="5440"><use xlink:href="#a"/><use xlink:href="#b" x="25.996" y="10.83"/><use xlink:href="#4"/><use xlink:href="#5" y="2.171"/><use xlink:href="#10" y="4.342"/><use xlink:href="#11" y="6.513"/><use xlink:href="#15" y="8.684"/><text y="12.525" class="j">?</text><text x="2.004" y="12.525" class="k">Body</text><text x="7.014" y="12.525" class="k">maximum</text><text x="15.03" y="12.525" class="k">size</text><text x="20.04" y="12.525" class="g">(8mb)</text></svg><svg x="5520"><use xlink:href="#a"/><use xlink:href="#b" x="-.004" y="10.83"/><use xlink:href="#4"/><use xlink:href="#5" y="2.171"/><use xlink:href="#10" y="4.342"/><use xlink:href="#11" y="6.513"/><use xlink:href="#15" y="8.684"/><use xlink:href="#16" y="10.855"/></svg><svg x="5600"><use xlink:href="#a"/><use xlink:href="#b" x="-.004" y="13.001"/><use xlink:href="#4"/><use xlink:href="#5" y="2.171"/><use xlink:href="#10" y="4.342"/><use xlink:href="#11" y="6.513"/><use xlink:href="#15" y="8.684"/><use xlink:href="#16" y="10.855"/></svg><svg x="5680"><use xlink:href="#a"/><use xlink:href="#b" x="33.996" y="13.001"/><use xlink:href="#4"/><use xlink:href="#5" y="2.171"/><use xlink:href="#10" y="4.342"/><use xlink:href="#11" y="6.513"/><use xlink:href="#15" y="8.684"/><use xlink:href="#16" y="10.855"/><text y="14.696" class="j">?</text><text x="2.004" y="14.696" class="k">Create</text><text x="9.018" y="14.696" class="k">posts</text><text x="15.03" y="14.696" class="k">dynamically</text><text x="27.054" y="14.696" class="g">(true)</text></svg><svg x="5760"><use xlink:href="#a"/><use xlink:href="#b" x="-.004" y="15.172"/><use xlink:href="#4"/><use xlink:href="#5" y="2.171"/><use xlink:href="#10" y="4.342"/><use xlink:href="#11" y="6.513"/><use xlink:href="#15" y="8.684"/><use xlink:href="#16" y="10.855"/><use xlink:href="#17" y="13.026"/></svg><svg x="5840"><use xlink:href="#a"/><use xlink:href="#b" x="24.996" y="15.172"/><use xlink:href="#4"/><use xlink:href="#5" y="2.171"/><use xlink:href="#10" y="4.342"/><use xlink:href="#11" y="6.513"/><use xlink:href="#15" y="8.684"/><use xlink:href="#16" y="10.855"/><use xlink:href="#17" y="13.026"/><text y="16.867" class="j">?</text><text x="2.004" y="16.867" class="k">Log</text><text x="6.012" y="16.867" class="k">folder</text><text x="13.026" y="16.867" class="k">path</text><text x="18.036" y="16.867" class="g">(logs)</text></svg><svg x="5920"><use xlink:href="#a"/><use xlink:href="#b" x="-.004" y="17.343"/><use xlink:href="#4"/><use xlink:href="#5" y="2.171"/><use xlink:href="#10" y="4.342"/><use xlink:href="#11" y="6.513"/><use xlink:href="#15" y="8.684"/><use xlink:href="#16" y="10.855"/><use xlink:href="#17" y="13.026"/><use xlink:href="#18" y="15.197"/></svg><svg x="6000"><use xlink:href="#a"/><use xlink:href="#b" x="47.996" y="17.343"/><use xlink:href="#4"/><use xlink:href="#5" y="2.171"/><use xlink:href="#10" y="4.342"/><use xlink:href="#11" y="6.513"/><use xlink:href="#15" y="8.684"/><use xlink:href="#16" y="10.855"/><use xlink:href="#17" y="13.026"/><use xlink:href="#18" y="15.197"/><text y="19.038" class="j">?</text><text x="2.004" y="19.038" class="k">Log</text><text x="6.012" y="19.038" class="k">files</text><text x="12.024" y="19.038" class="k">maximum</text><text x="20.04" y="19.038" class="k">size</text><text x="25.05" y="19.038" class="k">(e.g.</text><text x="31.062" y="19.038" class="k">1k,</text><text x="35.07" y="19.038" class="k">1m,</text><text x="39.078" y="19.038" class="k">1g)</text><text x="43.086" y="19.038" class="g">(8m)</text></svg><svg x="6080"><use xlink:href="#a"/><use xlink:href="#b" x="44.996" y="17.343"/><use xlink:href="#4"/><use xlink:href="#5" y="2.171"/><use xlink:href="#10" y="4.342"/><use xlink:href="#11" y="6.513"/><use xlink:href="#15" y="8.684"/><use xlink:href="#16" y="10.855"/><use xlink:href="#17" y="13.026"/><use xlink:href="#18" y="15.197"/><use xlink:href="#19" y="17.368"/></svg><svg x="6160"><use xlink:href="#a"/><use xlink:href="#b" x="-.004" y="19.514"/><use xlink:href="#4"/><use xlink:href="#5" y="2.171"/><use xlink:href="#10" y="4.342"/><use xlink:href="#11" y="6.513"/><use xlink:href="#15" y="8.684"/><use xlink:href="#16" y="10.855"/><use xlink:href="#17" y="13.026"/><use xlink:href="#18" y="15.197"/><use xlink:href="#19" y="17.368"/></svg><svg x="6240"><use xlink:href="#a"/><use xlink:href="#b" x="4.996" y="21.685"/><use xlink:href="#4"/><use xlink:href="#5" y="2.171"/><use xlink:href="#10" y="4.342"/><use xlink:href="#11" y="6.513"/><use xlink:href="#15" y="8.684"/><use xlink:href="#16" y="10.855"/><use xlink:href="#17" y="13.026"/><use xlink:href="#18" y="15.197"/><use xlink:href="#19" y="17.368"/><use xlink:href="#20" y="19.539"/><text y="23.38" class="g">(30)</text></svg><svg x="6320"><use xlink:href="#a"/><use xlink:href="#b" x="-.004" y="21.685"/><use xlink:href="#4"/><use xlink:href="#5" y="2.171"/><use xlink:href="#10" y="4.342"/><use xlink:href="#11" y="6.513"/><use xlink:href="#15" y="8.684"/><use xlink:href="#16" y="10.855"/><use xlink:href="#17" y="13.026"/><use xlink:href="#18" y="15.197"/><use xlink:href="#19" y="17.368"/><use xlink:href="#20" y="19.539"/><use xlink:href="#21" y="21.71"/></svg><svg x="6400"><use xlink:href="#a"/><use xlink:href="#b" x="-.004" y="23.856"/><use xlink:href="#4"/><use xlink:href="#5" y="2.171"/><use xlink:href="#10" y="4.342"/><use xlink:href="#11" y="6.513"/><use xlink:href="#15" y="8.684"/><use xlink:href="#16" y="10.855"/><use xlink:href="#17" y="13.026"/><use xlink:href="#18" y="15.197"/><use xlink:href="#19" y="17.368"/><use xlink:href="#20" y="19.539"/><use xlink:href="#21" y="21.71"/></svg><svg x="6480"><use xlink:href="#a"/><use xlink:href="#b" x="-.004" y="26.027"/><use xlink:href="#4"/><use xlink:href="#5" y="2.171"/><use xlink:href="#10" y="4.342"/><use xlink:href="#11" y="6.513"/><use xlink:href="#15" y="8.684"/><use xlink:href="#16" y="10.855"/><use xlink:href="#17" y="13.026"/><use xlink:href="#18" y="15.197"/><use xlink:href="#19" y="17.368"/><use xlink:href="#20" y="19.539"/><use xlink:href="#21" y="21.71"/><use xlink:href="#22" y="23.881"/></svg><svg x="6560"><use xlink:href="#a"/><use xlink:href="#b" x="10.996" y="26.027"/><use xlink:href="#4"/><use xlink:href="#5" y="2.171"/><use xlink:href="#10" y="4.342"/><use xlink:href="#11" y="6.513"/><use xlink:href="#15" y="8.684"/><use xlink:href="#16" y="10.855"/><use xlink:href="#17" y="13.026"/><use xlink:href="#18" y="15.197"/><use xlink:href="#19" y="17.368"/><use xlink:href="#20" y="19.539"/><use xlink:href="#21" y="21.71"/><use xlink:href="#22" y="23.881"/><use xlink:href="#1" y="26.052"/></svg><svg x="6640"><use xlink:href="#a"/><use xlink:href="#b" x="-.004" y="28.198"/><use xlink:href="#4"/><use xlink:href="#5" y="2.171"/><use xlink:href="#10" y="4.342"/><use xlink:href="#11" y="6.513"/><use xlink:href="#15" y="8.684"/><use xlink:href="#16" y="10.855"/><use xlink:href="#17" y="13.026"/><use xlink:href="#18" y="15.197"/><use xlink:href="#19" y="17.368"/><use xlink:href="#20" y="19.539"/><use xlink:href="#21" y="21.71"/><use xlink:href="#22" y="23.881"/><use xlink:href="#23" y="26.052"/></svg><svg x="6720"><use xlink:href="#a"/><use xlink:href="#b" x="-.004" y="30.369"/><use xlink:href="#4"/><use xlink:href="#5" y="2.171"/><use xlink:href="#10" y="4.342"/><use xlink:href="#11" y="6.513"/><use xlink:href="#15" y="8.684"/><use xlink:href="#16" y="10.855"/><use xlink:href="#17" y="13.026"/><use xlink:href="#18" y="15.197"/><use xlink:href="#19" y="17.368"/><use xlink:href="#20" y="19.539"/><use xlink:href="#21" y="21.71"/><use xlink:href="#22" y="23.881"/><use xlink:href="#23" y="26.052"/></svg></svg></g></g></svg></svg>