<svg xmlns="http://www.w3.org/2000/svg" xmlns:xlink="http://www.w3.org/1999/xlink" width="840" height="385.65"><rect width="840" height="385.65" rx="5" ry="5" class="a"/><svg y="0%" x="0%"><circle cx="20" cy="20" r="6" fill="#ff5f58"/><circle cx="40" cy="20" r="6" fill="#ffbd2e"/><circle cx="60" cy="20" r="6" fill="#18c132"/></svg><svg height="325.65" viewBox="0 0 80 32.565" width="800" x="15" xmlns="http://www.w3.org/2000/svg" xmlns:xlink="http://www.w3.org/1999/xlink" y="50"><style>@keyframes n{0%{transform:translateX(0)}1.5%{transform:translateX(-80px)}7.2%{transform:translateX(-160px)}7.7%{transform:translateX(-240px)}8.1%{transform:translateX(-320px)}8.7%{transform:translateX(-400px)}9.6%{transform:translateX(-480px)}10.3%{transform:translateX(-560px)}10.8%{transform:translateX(-640px)}11.7%{transform:translateX(-720px)}12.4%{transform:translateX(-800px)}12.8%{transform:translateX(-880px)}13.2%{transform:translateX(-960px)}14.7%{transform:translateX(-1040px)}15.2%{transform:translateX(-1120px)}16.3%{transform:translateX(-1200px)}17.9%{transform:translateX(-1280px)}18.7%{transform:translateX(-1360px)}19.5%{transform:translateX(-1440px)}20.1%{transform:translateX(-1520px)}20.7%{transform:translateX(-1600px)}22.3%{transform:translateX(-1680px)}22.8%{transform:translateX(-1760px)}25%{transform:translateX(-1840px)}27.9%{transform:translateX(-1920px)}29.1%{transform:translateX(-2000px)}31.1%{transform:translateX(-2080px)}34.7%{transform:translateX(-2160px)}35.2%{transform:translateX(-2240px)}35.9%{transform:translateX(-2320px)}36.8%{transform:translateX(-2400px)}37.8%{transform:translateX(-2480px)}39%{transform:translateX(-2560px)}40.1%{transform:translateX(-2640px)}40.6%{transform:translateX(-2720px)}41.1%{transform:translateX(-2800px)}42%{transform:translateX(-2880px)}43%{transform:translateX(-2960px)}44.9%{transform:translateX(-3040px)}45.4%{transform:translateX(-3120px)}47%{transform:translateX(-3200px)}48.1%{transform:translateX(-3280px)}49.1%{transform:translateX(-3360px)}49.8%{transform:translateX(-3440px)}50.2%{transform:translateX(-3520px)}53.8%{transform:translateX(-3600px)}60.3%{transform:translateX(-3680px)}60.4%{transform:translateX(-3760px)}60.8%{transform:translateX(-3840px)}60.9%{transform:translateX(-3920px)}67.4%{transform:translateX(-4000px)}to{transform:translateX(-4080px)}}.a{fill:#282d35}.f{fill:#a8cc8c;font-weight:700;white-space:pre}.g{fill:#b9c0cb}.g,.h,.i,.j,.k{white-space:pre}.h{fill:#71bef2;font-weight:700}.i,.j,.k{fill:#66c2cd}.j,.k{fill:#a8cc8c}.k{fill:#dbab79}</style><g font-family="Monaco,Consolas,Menlo,'Bitstream Vera Sans Mono','Powerline Symbols',monospace" font-size="1.67"><defs><symbol id="1"><text y="1.67" class="f">user@pc</text><text x="7.014" y="1.67" class="g">:</text><text x="8.016" y="1.67" class="h">~</text><text x="9.018" y="1.67" class="g">$</text></symbol><symbol id="2"><text y="1.67" class="f">user@pc</text><text x="7.014" y="1.67" class="g">:</text><text x="8.016" y="1.67" class="h">~</text><text x="9.018" y="1.67" class="g">$</text><text x="11.022" y="1.67" class="g">node</text></symbol><symbol id="3"><text y="1.67" class="f">user@pc</text><text x="7.014" y="1.67" class="g">:</text><text x="8.016" y="1.67" class="h">~</text><text x="9.018" y="1.67" class="g">$</text><text x="11.022" y="1.67" class="g">node</text><text x="16.032" y="1.67" class="g">remark42-mongodb.js</text></symbol><symbol id="4"><text y="1.67" class="f">user@pc</text><text x="7.014" y="1.67" class="g">:</text><text x="8.016" y="1.67" class="h">~</text><text x="9.018" y="1.67" class="g">$</text><text x="11.022" y="1.67" class="g">node</text><text x="16.032" y="1.67" class="g">remark42-mongodb.js</text><text x="36.072" y="1.67" class="g">posts</text></symbol><symbol id="5"><text y="1.67" class="f">user@pc</text><text x="7.014" y="1.67" class="g">:</text><text x="8.016" y="1.67" class="h">~</text><text x="9.018" y="1.67" class="g">$</text><text x="11.022" y="1.67" class="g">node</text><text x="16.032" y="1.67" class="g">remark42-mongodb.js</text><text x="36.072" y="1.67" class="g">posts</text><text x="42.084" y="1.67" class="g">list</text></symbol><symbol id="6"><text y="1.67" class="f">user@pc</text><text x="7.014" y="1.67" class="g">:</text><text x="8.016" y="1.67" class="h">~</text><text x="9.018" y="1.67" class="g">$</text><text x="11.022" y="1.67" class="g">node</text><text x="16.032" y="1.67" class="g">remark42-mongodb.js</text><text x="36.072" y="1.67" class="g">posts</text><text x="42.084" y="1.67" class="g">list</text><text x="47.094" y="1.67" class="g">my-site</text></symbol><symbol id="7"><text y="1.67" class="i">Remark42</text><text x="9.018" y="1.67" class="i">MongoDB</text><text x="17.034" y="1.67" class="i">Server</text><text x="24.048" y="1.67" class="i">v0.1.0</text></symbol><symbol id="8"><text y="1.67" class="g">Loaded</text><text x="7.014" y="1.67" class="g">configuration</text><text x="21.042" y="1.67" class="g">file</text><text x="26.052" y="1.67" class="g">&apos;remark42-mongodb.json&apos;</text></symbol><symbol id="9"><text y="1.67" class="g">┌─────────┬───────────────────────────────┬──────────┐</text></symbol><symbol id="10"><text y="1.67" class="g">│</text><text x="2.004" y="1.67" class="g">(index)</text><text x="10.02" y="1.67" class="g">│</text><text x="25.05" y="1.67" class="g">url</text><text x="42.084" y="1.67" class="g">│</text><text x="44.088" y="1.67" class="g">readOnly</text><text x="53.106" y="1.67" class="g">│</text></symbol><symbol id="11"><text y="1.67" class="g">├─────────┼───────────────────────────────┼──────────┤</text></symbol><symbol id="12"><text y="1.67" class="g">│</text><text x="5.01" y="1.67" class="g">0</text><text x="10.02" y="1.67" class="g">│</text><text x="13.026" y="1.67" class="j">&apos;http://localhost/new-post&apos;</text><text x="42.084" y="1.67" class="g">│</text><text x="45.09" y="1.67" class="k">false</text><text x="53.106" y="1.67" class="g">│</text></symbol><symbol id="13"><text y="1.67" class="g">│</text><text x="5.01" y="1.67" class="g">1</text><text x="10.02" y="1.67" class="g">│</text><text x="12.024" y="1.67" class="j">&apos;http://localhost/other-post&apos;</text><text x="42.084" y="1.67" class="g">│</text><text x="46.092" y="1.67" class="k">true</text><text x="53.106" y="1.67" class="g">│</text></symbol><symbol id="14"><text y="1.67" class="g">└─────────┴───────────────────────────────┴──────────┘</text></symbol><symbol id="15"><text y="1.67" class="f">user@pc</text><text x="7.014" y="1.67" class="g">:</text><text x="8.016" y="1.67" class="h">~</text><text x="9.018" y="1.67" class="g">$</text><text x="11.022" y="1.67" class="g">exit</text></symbol><symbol id="a"><path fill="transparent" d="M0 0h80v15H0z"/></symbol><symbol id="b"><path fill="#6f7683" d="M0 0h1.102v2.171H0z"/></symbol></defs><path class="a" d="M0 0h80v32.565H0z"/><g style="animation-duration:15.411944s;animation-iteration-count:infinite;animation-name:n;animation-timing-function:steps(1,end)"><svg width="4160"><svg><use xlink:href="#a"/><use xlink:href="#b" x="-.004"/></svg><svg x="80"><use xlink:href="#a"/><use xlink:href="#b" x="10.996"/><use xlink:href="#1"/></svg><svg x="160"><use xlink:href="#a"/><use xlink:href="#b" x="11.996"/><text y="1.67" class="f">user@pc</text><text x="7.014" y="1.67" class="g">:</text><text x="8.016" y="1.67" class="h">~</text><text x="9.018" y="1.67" class="g">$</text><text x="11.022" y="1.67" class="g">n</text></svg><svg x="240"><use xlink:href="#a"/><use xlink:href="#b" x="12.996"/><text y="1.67" class="f">user@pc</text><text x="7.014" y="1.67" class="g">:</text><text x="8.016" y="1.67" class="h">~</text><text x="9.018" y="1.67" class="g">$</text><text x="11.022" y="1.67" class="g">no</text></svg><svg x="320"><use xlink:href="#a"/><use xlink:href="#b" x="13.996"/><text y="1.67" class="f">user@pc</text><text x="7.014" y="1.67" class="g">:</text><text x="8.016" y="1.67" class="h">~</text><text x="9.018" y="1.67" class="g">$</text><text x="11.022" y="1.67" class="g">nod</text></svg><svg x="400"><use xlink:href="#a"/><use xlink:href="#b" x="14.996"/><use xlink:href="#2"/></svg><svg x="480"><use xlink:href="#a"/><use xlink:href="#b" x="15.996"/><use xlink:href="#2"/></svg><svg x="560"><use xlink:href="#a"/><use xlink:href="#b" x="16.996"/><text y="1.67" class="f">user@pc</text><text x="7.014" y="1.67" class="g">:</text><text x="8.016" y="1.67" class="h">~</text><text x="9.018" y="1.67" class="g">$</text><text x="11.022" y="1.67" class="g">node</text><text x="16.032" y="1.67" class="g">r</text></svg><svg x="640"><use xlink:href="#a"/><use xlink:href="#b" x="17.996"/><text y="1.67" class="f">user@pc</text><text x="7.014" y="1.67" class="g">:</text><text x="8.016" y="1.67" class="h">~</text><text x="9.018" y="1.67" class="g">$</text><text x="11.022" y="1.67" class="g">node</text><text x="16.032" y="1.67" class="g">re</text></svg><svg x="720"><use xlink:href="#a"/><use xlink:href="#b" x="18.996"/><text y="1.67" class="f">user@pc</text><text x="7.014" y="1.67" class="g">:</text><text x="8.016" y="1.67" class="h">~</text><text x="9.018" y="1.67" class="g">$</text><text x="11.022" y="1.67" class="g">node</text><text x="16.032" y="1.67" class="g">rem</text></svg><svg x="800"><use xlink:href="#a"/><use xlink:href="#b" x="19.996"/><text y="1.67" class="f">user@pc</text><text x="7.014" y="1.67" class="g">:</text><text x="8.016" y="1.67" class="h">~</text><text x="9.018" y="1.67" class="g">$</text><text x="11.022" y="1.67" class="g">node</text><text x="16.032" y="1.67" class="g">rema</text></svg><svg x="880"><use xlink:href="#a"/><use xlink:href="#b" x="20.996"/><text y="1.67" class="f">user@pc</text><text x="7.014" y="1.67" class="g">:</text><text x="8.016" y="1.67" class="h">~</text><text x="9.018" y="1.67" class="g">$</text><text x="11.022" y="1.67" class="g">node</text><text x="16.032" y="1.67" class="g">remar</text></svg><svg x="960"><use xlink:href="#a"/><use xlink:href="#b" x="21.996"/><text y="1.67" class="f">user@pc</text><text x="7.014" y="1.67" class="g">:</text><text x="8.016" y="1.67" class="h">~</text><text x="9.018" y="1.67" class="g">$</text><text x="11.022" y="1.67" class="g">node</text><text x="16.032" y="1.67" class="g">remark</text></svg><svg x="1040"><use xlink:href="#a"/><use xlink:href="#b" x="22.996"/><text y="1.67" class="f">user@pc</text><text x="7.014" y="1.67" class="g">:</text><text x="8.016" y="1.67" class="h">~</text><text x="9.018" y="1.67" class="g">$</text><text x="11.022" y="1.67" class="g">node</text><text x="16.032" y="1.67" class="g">remark4</text></svg><svg x="1120"><use xlink:href="#a"/><use xlink:href="#b" x="23.996"/><text y="1.67" class="f">user@pc</text><text x="7.014" y="1.67" class="g">:</text><text x="8.016" y="1.67" class="h">~</text><text x="9.018" y="1.67" class="g">$</text><text x="11.022" y="1.67" class="g">node</text><text x="16.032" y="1.67" class="g">remark42</text></svg><svg x="1200"><use xlink:href="#a"/><use xlink:href="#b" x="24.996"/><text y="1.67" class="f">user@pc</text><text x="7.014" y="1.67" class="g">:</text><text x="8.016" y="1.67" class="h">~</text><text x="9.018" y="1.67" class="g">$</text><text x="11.022" y="1.67" class="g">node</text><text x="16.032" y="1.67" class="g">remark42-</text></svg><svg x="1280"><use xlink:href="#a"/><use xlink:href="#b" x="25.996"/><text y="1.67" class="f">user@pc</text><text x="7.014" y="1.67" class="g">:</text><text x="8.016" y="1.67" class="h">~</text><text x="9.018" y="1.67" class="g">$</text><text x="11.022" y="1.67" class="g">node</text><text x="16.032" y="1.67" class="g">remark42-m</text></svg><svg x="1360"><use xlink:href="#a"/><use xlink:href="#b" x="26.996"/><text y="1.67" class="f">user@pc</text><text x="7.014" y="1.67" class="g">:</text><text x="8.016" y="1.67" class="h">~</text><text x="9.018" y="1.67" class="g">$</text><text x="11.022" y="1.67" class="g">node</text><text x="16.032" y="1.67" class="g">remark42-mo</text></svg><svg x="1440"><use xlink:href="#a"/><use xlink:href="#b" x="27.996"/><text y="1.67" class="f">user@pc</text><text x="7.014" y="1.67" class="g">:</text><text x="8.016" y="1.67" class="h">~</text><text x="9.018" y="1.67" class="g">$</text><text x="11.022" y="1.67" class="g">node</text><text x="16.032" y="1.67" class="g">remark42-mon</text></svg><svg x="1520"><use xlink:href="#a"/><use xlink:href="#b" x="28.996"/><text y="1.67" class="f">user@pc</text><text x="7.014" y="1.67" class="g">:</text><text x="8.016" y="1.67" class="h">~</text><text x="9.018" y="1.67" class="g">$</text><text x="11.022" y="1.67" class="g">node</text><text x="16.032" y="1.67" class="g">remark42-mong</text></svg><svg x="1600"><use xlink:href="#a"/><use xlink:href="#b" x="29.996"/><text y="1.67" class="f">user@pc</text><text x="7.014" y="1.67" class="g">:</text><text x="8.016" y="1.67" class="h">~</text><text x="9.018" y="1.67" class="g">$</text><text x="11.022" y="1.67" class="g">node</text><text x="16.032" y="1.67" class="g">remark42-mongo</text></svg><svg x="1680"><use xlink:href="#a"/><use xlink:href="#b" x="30.996"/><text y="1.67" class="f">user@pc</text><text x="7.014" y="1.67" class="g">:</text><text x="8.016" y="1.67" class="h">~</text><text x="9.018" y="1.67" class="g">$</text><text x="11.022" y="1.67" class="g">node</text><text x="16.032" y="1.67" class="g">remark42-mongod</text></svg><svg x="1760"><use xlink:href="#a"/><use xlink:href="#b" x="31.996"/><text y="1.67" class="f">user@pc</text><text x="7.014" y="1.67" class="g">:</text><text x="8.016" y="1.67" class="h">~</text><text x="9.018" y="1.67" class="g">$</text><text x="11.022" y="1.67" class="g">node</text><text x="16.032" y="1.67" class="g">remark42-mongodb</text></svg><svg x="1840"><use xlink:href="#a"/><use xlink:href="#b" x="32.996"/><text y="1.67" class="f">user@pc</text><text x="7.014" y="1.67" class="g">:</text><text x="8.016" y="1.67" class="h">~</text><text x="9.018" y="1.67" class="g">$</text><text x="11.022" y="1.67" class="g">node</text><text x="16.032" y="1.67" class="g">remark42-mongodb.</text></svg><svg x="1920"><use xlink:href="#a"/><use xlink:href="#b" x="33.996"/><text y="1.67" class="f">user@pc</text><text x="7.014" y="1.67" class="g">:</text><text x="8.016" y="1.67" class="h">~</text><text x="9.018" y="1.67" class="g">$</text><text x="11.022" y="1.67" class="g">node</text><text x="16.032" y="1.67" class="g">remark42-mongodb.j</text></svg><svg x="2000"><use xlink:href="#a"/><use xlink:href="#b" x="34.996"/><use xlink:href="#3"/></svg><svg x="2080"><use xlink:href="#a"/><use xlink:href="#b" x="35.996"/><use xlink:href="#3"/></svg><svg x="2160"><use xlink:href="#a"/><use xlink:href="#b" x="36.996"/><text y="1.67" class="f">user@pc</text><text x="7.014" y="1.67" class="g">:</text><text x="8.016" y="1.67" class="h">~</text><text x="9.018" y="1.67" class="g">$</text><text x="11.022" y="1.67" class="g">node</text><text x="16.032" y="1.67" class="g">remark42-mongodb.js</text><text x="36.072" y="1.67" class="g">p</text></svg><svg x="2240"><use xlink:href="#a"/><use xlink:href="#b" x="37.996"/><text y="1.67" class="f">user@pc</text><text x="7.014" y="1.67" class="g">:</text><text x="8.016" y="1.67" class="h">~</text><text x="9.018" y="1.67" class="g">$</text><text x="11.022" y="1.67" class="g">node</text><text x="16.032" y="1.67" class="g">remark42-mongodb.js</text><text x="36.072" y="1.67" class="g">po</text></svg><svg x="2320"><use xlink:href="#a"/><use xlink:href="#b" x="38.996"/><text y="1.67" class="f">user@pc</text><text x="7.014" y="1.67" class="g">:</text><text x="8.016" y="1.67" class="h">~</text><text x="9.018" y="1.67" class="g">$</text><text x="11.022" y="1.67" class="g">node</text><text x="16.032" y="1.67" class="g">remark42-mongodb.js</text><text x="36.072" y="1.67" class="g">pos</text></svg><svg x="2400"><use xlink:href="#a"/><use xlink:href="#b" x="39.996"/><text y="1.67" class="f">user@pc</text><text x="7.014" y="1.67" class="g">:</text><text x="8.016" y="1.67" class="h">~</text><text x="9.018" y="1.67" class="g">$</text><text x="11.022" y="1.67" class="g">node</text><text x="16.032" y="1.67" class="g">remark42-mongodb.js</text><text x="36.072" y="1.67" class="g">post</text></svg><svg x="2480"><use xlink:href="#a"/><use xlink:href="#b" x="40.996"/><use xlink:href="#4"/></svg><svg x="2560"><use xlink:href="#a"/><use xlink:href="#b" x="41.996"/><use xlink:href="#4"/></svg><svg x="2640"><use xlink:href="#a"/><use xlink:href="#b" x="42.996"/><text y="1.67" class="f">user@pc</text><text x="7.014" y="1.67" class="g">:</text><text x="8.016" y="1.67" class="h">~</text><text x="9.018" y="1.67" class="g">$</text><text x="11.022" y="1.67" class="g">node</text><text x="16.032" y="1.67" class="g">remark42-mongodb.js</text><text x="36.072" y="1.67" class="g">posts</text><text x="42.084" y="1.67" class="g">l</text></svg><svg x="2720"><use xlink:href="#a"/><use xlink:href="#b" x="43.996"/><text y="1.67" class="f">user@pc</text><text x="7.014" y="1.67" class="g">:</text><text x="8.016" y="1.67" class="h">~</text><text x="9.018" y="1.67" class="g">$</text><text x="11.022" y="1.67" class="g">node</text><text x="16.032" y="1.67" class="g">remark42-mongodb.js</text><text x="36.072" y="1.67" class="g">posts</text><text x="42.084" y="1.67" class="g">li</text></svg><svg x="2800"><use xlink:href="#a"/><use xlink:href="#b" x="44.996"/><text y="1.67" class="f">user@pc</text><text x="7.014" y="1.67" class="g">:</text><text x="8.016" y="1.67" class="h">~</text><text x="9.018" y="1.67" class="g">$</text><text x="11.022" y="1.67" class="g">node</text><text x="16.032" y="1.67" class="g">remark42-mongodb.js</text><text x="36.072" y="1.67" class="g">posts</text><text x="42.084" y="1.67" class="g">lis</text></svg><svg x="2880"><use xlink:href="#a"/><use xlink:href="#b" x="45.996"/><use xlink:href="#5"/></svg><svg x="2960"><use xlink:href="#a"/><use xlink:href="#b" x="46.996"/><use xlink:href="#5"/></svg><svg x="3040"><use xlink:href="#a"/><use xlink:href="#b" x="47.996"/><text y="1.67" class="f">user@pc</text><text x="7.014" y="1.67" class="g">:</text><text x="8.016" y="1.67" class="h">~</text><text x="9.018" y="1.67" class="g">$</text><text x="11.022" y="1.67" class="g">node</text><text x="16.032" y="1.67" class="g">remark42-mongodb.js</text><text x="36.072" y="1.67" class="g">posts</text><text x="42.084" y="1.67" class="g">list</text><text x="47.094" y="1.67" class="g">m</text></svg><svg x="3120"><use xlink:href="#a"/><use xlink:href="#b" x="48.996"/><text y="1.67" class="f">user@pc</text><text x="7.014" y="1.67" class="g">:</text><text x="8.016" y="1.67" class="h">~</text><text x="9.018" y="1.67" class="g">$</text><text x="11.022" y="1.67" class="g">node</text><text x="16.032" y="1.67" class="g">remark42-mongodb.js</text><text x="36.072" y="1.67" class="g">posts</text><text x="42.084" y="1.67" class="g">list</text><text x="47.094" y="1.67" class="g">my</text></svg><svg x="3200"><use xlink:href="#a"/><use xlink:href="#b" x="49.996"/><text y="1.67" class="f">user@pc</text><text x="7.014" y="1.67" class="g">:</text><text x="8.016" y="1.67" class="h">~</text><text x="9.018" y="1.67" class="g">$</text><text x="11.022" y="1.67" class="g">node</text><text x="16.032" y="1.67" class="g">remark42-mongodb.js</text><text x="36.072" y="1.67" class="g">posts</text><text x="42.084" y="1.67" class="g">list</text><text x="47.094" y="1.67" class="g">my-</text></svg><svg x="3280"><use xlink:href="#a"/><use xlink:href="#b" x="50.996"/><text y="1.67" class="f">user@pc</text><text x="7.014" y="1.67" class="g">:</text><text x="8.016" y="1.67" class="h">~</text><text x="9.018" y="1.67" class="g">$</text><text x="11.022" y="1.67" class="g">node</text><text x="16.032" y="1.67" class="g">remark42-mongodb.js</text><text x="36.072" y="1.67" class="g">posts</text><text x="42.084" y="1.67" class="g">list</text><text x="47.094" y="1.67" class="g">my-s</text></svg><svg x="3360"><use xlink:href="#a"/><use xlink:href="#b" x="51.996"/><text y="1.67" class="f">user@pc</text><text x="7.014" y="1.67" class="g">:</text><text x="8.016" y="1.67" class="h">~</text><text x="9.018" y="1.67" class="g">$</text><text x="11.022" y="1.67" class="g">node</text><text x="16.032" y="1.67" class="g">remark42-mongodb.js</text><text x="36.072" y="1.67" class="g">posts</text><text x="42.084" y="1.67" class="g">list</text><text x="47.094" y="1.67" class="g">my-si</text></svg><svg x="3440"><use xlink:href="#a"/><use xlink:href="#b" x="52.996"/><text y="1.67" class="f">user@pc</text><text x="7.014" y="1.67" class="g">:</text><text x="8.016" y="1.67" class="h">~</text><text x="9.018" y="1.67" class="g">$</text><text x="11.022" y="1.67" class="g">node</text><text x="16.032" y="1.67" class="g">remark42-mongodb.js</text><text x="36.072" y="1.67" class="g">posts</text><text x="42.084" y="1.67" class="g">list</text><text x="47.094" y="1.67" class="g">my-sit</text></svg><svg x="3520"><use xlink:href="#a"/><use xlink:href="#b" x="53.996"/><use xlink:href="#6"/></svg><svg x="3600"><use xlink:href="#a"/><use xlink:href="#b" x="-.004" y="2.146"/><use xlink:href="#6"/></svg><svg x="3680"><use xlink:href="#a"/><use xlink:href="#b" x="-.004" y="4.317"/><use xlink:href="#6"/><use xlink:href="#7" y="2.171"/></svg><svg x="3760"><use xlink:href="#a"/><use xlink:href="#b" x="-.004" y="6.488"/><use xlink:href="#6"/><use xlink:href="#7" y="2.171"/><use xlink:href="#8" y="4.342"/></svg><svg x="3840"><use xlink:href="#a"/><use xlink:href="#b" x="-.004" y="19.514"/><use xlink:href="#6"/><use xlink:href="#7" y="2.171"/><use xlink:href="#8" y="4.342"/><use xlink:href="#9" y="6.513"/><use xlink:href="#10" y="8.684"/><use xlink:href="#11" y="10.855"/><use xlink:href="#12" y="13.026"/><use xlink:href="#13" y="15.197"/><use xlink:href="#14" y="17.368"/></svg><svg x="3920"><use xlink:href="#a"/><use xlink:href="#b" x="10.996" y="19.514"/><use xlink:href="#6"/><use xlink:href="#7" y="2.171"/><use xlink:href="#8" y="4.342"/><use xlink:href="#9" y="6.513"/><use xlink:href="#10" y="8.684"/><use xlink:href="#11" y="10.855"/><use xlink:href="#12" y="13.026"/><use xlink:href="#13" y="15.197"/><use xlink:href="#14" y="17.368"/><use xlink:href="#1" y="19.539"/></svg><svg x="4000"><use xlink:href="#a"/><use xlink:href="#b" x="-.004" y="21.685"/><use xlink:href="#6"/><use xlink:href="#7" y="2.171"/><use xlink:href="#8" y="4.342"/><use xlink:href="#9" y="6.513"/><use xlink:href="#10" y="8.684"/><use xlink:href="#11" y="10.855"/><use xlink:href="#12" y="13.026"/><use xlink:href="#13" y="15.197"/><use xlink:href="#14" y="17.368"/><use xlink:href="#15" y="19.539"/></svg><svg x="4080"><use xlink:href="#a"/><use xlink:href="#b" x="-.004" y="23.856"/><use xlink:href="#6"/><use xlink:href="#7" y="2.171"/><use xlink:href="#8" y="4.342"/><use xlink:href="#9" y="6.513"/><use xlink:href="#10" y="8.684"/><use xlink:href="#11" y="10.855"/><use xlink:href="#12" y="13.026"/><use xlink:href="#13" y="15.197"/><use xlink:href="#14" y="17.368"/><use xlink:href="#15" y="19.539"/></svg></svg></g></g></svg></svg>