<svg xmlns="http://www.w3.org/2000/svg" xmlns:xlink="http://www.w3.org/1999/xlink" width="840" height="385.65"><rect width="840" height="385.65" rx="5" ry="5" class="a"/><svg y="0%" x="0%"><circle cx="20" cy="20" r="6" fill="#ff5f58"/><circle cx="40" cy="20" r="6" fill="#ffbd2e"/><circle cx="60" cy="20" r="6" fill="#18c132"/></svg><svg height="325.65" viewBox="0 0 80 32.565" width="800" x="15" xmlns="http://www.w3.org/2000/svg" xmlns:xlink="http://www.w3.org/1999/xlink" y="50"><style>@keyframes n{0%{transform:translateX(0)}1.6%{transform:translateX(-80px)}8.3%{transform:translateX(-160px)}9%{transform:translateX(-240px)}9.6%{transform:translateX(-320px)}10%{transform:translateX(-400px)}11%{transform:translateX(-480px)}12.3%{transform:translateX(-560px)}12.8%{transform:translateX(-640px)}13.5%{transform:translateX(-720px)}14.2%{transform:translateX(-800px)}14.9%{transform:translateX(-880px)}15.5%{transform:translateX(-960px)}17.8%{transform:translateX(-1040px)}18.3%{transform:translateX(-1120px)}20.9%{transform:translateX(-1200px)}22.2%{transform:translateX(-1280px)}23%{transform:translateX(-1360px)}23.9%{transform:translateX(-1440px)}24.7%{transform:translateX(-1520px)}25.4%{transform:translateX(-1600px)}26.4%{transform:translateX(-1680px)}27%{transform:translateX(-1760px)}32.9%{transform:translateX(-1840px)}34.3%{transform:translateX(-1920px)}35%{transform:translateX(-2000px)}36.1%{transform:translateX(-2080px)}41.3%{transform:translateX(-2160px)}42%{transform:translateX(-2240px)}42.7%{transform:translateX(-2320px)}43%{transform:translateX(-2400px)}43.6%{transform:translateX(-2480px)}44.6%{transform:translateX(-2560px)}46.9%{transform:translateX(-2640px)}47.4%{transform:translateX(-2720px)}47.9%{transform:translateX(-2800px)}48.4%{transform:translateX(-2880px)}51.6%{transform:translateX(-2960px)}58.4%{transform:translateX(-3040px)}58.5%{transform:translateX(-3120px)}59%{transform:translateX(-3200px)}59.1%{transform:translateX(-3280px)}65.9%{transform:translateX(-3360px)}to{transform:translateX(-3440px)}}.a{fill:#282d35}.f{fill:#a8cc8c;font-weight:700;white-space:pre}.g{fill:#b9c0cb}.g,.h,.i,.j,.k{white-space:pre}.h{fill:#71bef2;font-weight:700}.i,.j,.k{fill:#66c2cd}.j,.k{fill:#a8cc8c}.k{fill:#dbab79}</style><g font-family="Monaco,Consolas,Menlo,'Bitstream Vera Sans Mono','Powerline Symbols',monospace" font-size="1.67"><defs><symbol id="1"><text y="1.67" class="f">user@pc</text><text x="7.014" y="1.67" class="g">:</text><text x="8.016" y="1.67" class="h">~</text><text x="9.018" y="1.67" class="g">$</text></symbol><symbol id="2"><text y="1.67" class="f">user@pc</text><text x="7.014" y="1.67" class="g">:</text><text x="8.016" y="1.67" class="h">~</text><text x="9.018" y="1.67" class="g">$</text><text x="11.022" y="1.67" class="g">node</text></symbol><symbol id="3"><text y="1.67" class="f">user@pc</text><text x="7.014" y="1.67" class="g">:</text><text x="8.016" y="1.67" class="h">~</text><text x="9.018" y="1.67" class="g">$</text><text x="11.022" y="1.67" class="g">node</text><text x="16.032" y="1.67" class="g">remark42-mongodb.js</text></symbol><symbol id="4"><text y="1.67" class="f">user@pc</text><text x="7.014" y="1.67" class="g">:</text><text x="8.016" y="1.67" class="h">~</text><text x="9.018" y="1.67" class="g">$</text><text x="11.022" y="1.67" class="g">node</text><text x="16.032" y="1.67" class="g">remark42-mongodb.js</text><text x="36.072" y="1.67" class="g">sites</text></symbol><symbol id="5"><text y="1.67" class="f">user@pc</text><text x="7.014" y="1.67" class="g">:</text><text x="8.016" y="1.67" class="h">~</text><text x="9.018" y="1.67" class="g">$</text><text x="11.022" y="1.67" class="g">node</text><text x="16.032" y="1.67" class="g">remark42-mongodb.js</text><text x="36.072" y="1.67" class="g">sites</text><text x="42.084" y="1.67" class="g">list</text></symbol><symbol id="6"><text y="1.67" class="i">Remark42</text><text x="9.018" y="1.67" class="i">MongoDB</text><text x="17.034" y="1.67" class="i">Server</text><text x="24.048" y="1.67" class="i">v0.1.0</text></symbol><symbol id="7"><text y="1.67" class="g">Loaded</text><text x="7.014" y="1.67" class="g">configuration</text><text x="21.042" y="1.67" class="g">file</text><text x="26.052" y="1.67" class="g">&apos;remark42-mongodb.json&apos;</text></symbol><symbol id="8"><text y="1.67" class="g">┌─────────┬──────────────┬─────────┬─────────────────────────────┐</text></symbol><symbol id="9"><text y="1.67" class="g">│</text><text x="2.004" y="1.67" class="g">(index)</text><text x="10.02" y="1.67" class="g">│</text><text x="16.032" y="1.67" class="g">_id</text><text x="25.05" y="1.67" class="g">│</text><text x="27.054" y="1.67" class="g">enabled</text><text x="35.07" y="1.67" class="g">│</text><text x="45.09" y="1.67" class="g">adminEmail</text><text x="65.13" y="1.67" class="g">│</text></symbol><symbol id="10"><text y="1.67" class="g">├─────────┼──────────────┼─────────┼─────────────────────────────┤</text></symbol><symbol id="11"><text y="1.67" class="g">│</text><text x="5.01" y="1.67" class="g">0</text><text x="10.02" y="1.67" class="g">│</text><text x="13.026" y="1.67" class="j">&apos;my-site&apos;</text><text x="25.05" y="1.67" class="g">│</text><text x="28.056" y="1.67" class="k">true</text><text x="35.07" y="1.67" class="g">│</text><text x="39.078" y="1.67" class="j">&apos;site.admin@gmail.com&apos;</text><text x="65.13" y="1.67" class="g">│</text></symbol><symbol id="12"><text y="1.67" class="g">│</text><text x="5.01" y="1.67" class="g">1</text><text x="10.02" y="1.67" class="g">│</text><text x="12.024" y="1.67" class="j">&apos;other-site&apos;</text><text x="25.05" y="1.67" class="g">│</text><text x="28.056" y="1.67" class="k">true</text><text x="35.07" y="1.67" class="g">│</text><text x="37.074" y="1.67" class="j">&apos;othersite.admin@gmail.com&apos;</text><text x="65.13" y="1.67" class="g">│</text></symbol><symbol id="13"><text y="1.67" class="g">└─────────┴──────────────┴─────────┴─────────────────────────────┘</text></symbol><symbol id="14"><text y="1.67" class="f">user@pc</text><text x="7.014" y="1.67" class="g">:</text><text x="8.016" y="1.67" class="h">~</text><text x="9.018" y="1.67" class="g">$</text><text x="11.022" y="1.67" class="g">exit</text></symbol><symbol id="a"><path fill="transparent" d="M0 0h80v15H0z"/></symbol><symbol id="b"><path fill="#6f7683" d="M0 0h1.102v2.171H0z"/></symbol></defs><path class="a" d="M0 0h80v32.565H0z"/><g style="animation-duration:14.72848s;animation-iteration-count:infinite;animation-name:n;animation-timing-function:steps(1,end)"><svg width="3520"><svg><use xlink:href="#a"/><use xlink:href="#b" x="-.004"/></svg><svg x="80"><use xlink:href="#a"/><use xlink:href="#b" x="10.996"/><use xlink:href="#1"/></svg><svg x="160"><use xlink:href="#a"/><use xlink:href="#b" x="11.996"/><text y="1.67" class="f">user@pc</text><text x="7.014" y="1.67" class="g">:</text><text x="8.016" y="1.67" class="h">~</text><text x="9.018" y="1.67" class="g">$</text><text x="11.022" y="1.67" class="g">n</text></svg><svg x="240"><use xlink:href="#a"/><use xlink:href="#b" x="12.996"/><text y="1.67" class="f">user@pc</text><text x="7.014" y="1.67" class="g">:</text><text x="8.016" y="1.67" class="h">~</text><text x="9.018" y="1.67" class="g">$</text><text x="11.022" y="1.67" class="g">no</text></svg><svg x="320"><use xlink:href="#a"/><use xlink:href="#b" x="13.996"/><text y="1.67" class="f">user@pc</text><text x="7.014" y="1.67" class="g">:</text><text x="8.016" y="1.67" class="h">~</text><text x="9.018" y="1.67" class="g">$</text><text x="11.022" y="1.67" class="g">nod</text></svg><svg x="400"><use xlink:href="#a"/><use xlink:href="#b" x="14.996"/><use xlink:href="#2"/></svg><svg x="480"><use xlink:href="#a"/><use xlink:href="#b" x="15.996"/><use xlink:href="#2"/></svg><svg x="560"><use xlink:href="#a"/><use xlink:href="#b" x="16.996"/><text y="1.67" class="f">user@pc</text><text x="7.014" y="1.67" class="g">:</text><text x="8.016" y="1.67" class="h">~</text><text x="9.018" y="1.67" class="g">$</text><text x="11.022" y="1.67" class="g">node</text><text x="16.032" y="1.67" class="g">r</text></svg><svg x="640"><use xlink:href="#a"/><use xlink:href="#b" x="17.996"/><text y="1.67" class="f">user@pc</text><text x="7.014" y="1.67" class="g">:</text><text x="8.016" y="1.67" class="h">~</text><text x="9.018" y="1.67" class="g">$</text><text x="11.022" y="1.67" class="g">node</text><text x="16.032" y="1.67" class="g">re</text></svg><svg x="720"><use xlink:href="#a"/><use xlink:href="#b" x="18.996"/><text y="1.67" class="f">user@pc</text><text x="7.014" y="1.67" class="g">:</text><text x="8.016" y="1.67" class="h">~</text><text x="9.018" y="1.67" class="g">$</text><text x="11.022" y="1.67" class="g">node</text><text x="16.032" y="1.67" class="g">rem</text></svg><svg x="800"><use xlink:href="#a"/><use xlink:href="#b" x="19.996"/><text y="1.67" class="f">user@pc</text><text x="7.014" y="1.67" class="g">:</text><text x="8.016" y="1.67" class="h">~</text><text x="9.018" y="1.67" class="g">$</text><text x="11.022" y="1.67" class="g">node</text><text x="16.032" y="1.67" class="g">rema</text></svg><svg x="880"><use xlink:href="#a"/><use xlink:href="#b" x="20.996"/><text y="1.67" class="f">user@pc</text><text x="7.014" y="1.67" class="g">:</text><text x="8.016" y="1.67" class="h">~</text><text x="9.018" y="1.67" class="g">$</text><text x="11.022" y="1.67" class="g">node</text><text x="16.032" y="1.67" class="g">remar</text></svg><svg x="960"><use xlink:href="#a"/><use xlink:href="#b" x="21.996"/><text y="1.67" class="f">user@pc</text><text x="7.014" y="1.67" class="g">:</text><text x="8.016" y="1.67" class="h">~</text><text x="9.018" y="1.67" class="g">$</text><text x="11.022" y="1.67" class="g">node</text><text x="16.032" y="1.67" class="g">remark</text></svg><svg x="1040"><use xlink:href="#a"/><use xlink:href="#b" x="22.996"/><text y="1.67" class="f">user@pc</text><text x="7.014" y="1.67" class="g">:</text><text x="8.016" y="1.67" class="h">~</text><text x="9.018" y="1.67" class="g">$</text><text x="11.022" y="1.67" class="g">node</text><text x="16.032" y="1.67" class="g">remark4</text></svg><svg x="1120"><use xlink:href="#a"/><use xlink:href="#b" x="23.996"/><text y="1.67" class="f">user@pc</text><text x="7.014" y="1.67" class="g">:</text><text x="8.016" y="1.67" class="h">~</text><text x="9.018" y="1.67" class="g">$</text><text x="11.022" y="1.67" class="g">node</text><text x="16.032" y="1.67" class="g">remark42</text></svg><svg x="1200"><use xlink:href="#a"/><use xlink:href="#b" x="24.996"/><text y="1.67" class="f">user@pc</text><text x="7.014" y="1.67" class="g">:</text><text x="8.016" y="1.67" class="h">~</text><text x="9.018" y="1.67" class="g">$</text><text x="11.022" y="1.67" class="g">node</text><text x="16.032" y="1.67" class="g">remark42-</text></svg><svg x="1280"><use xlink:href="#a"/><use xlink:href="#b" x="25.996"/><text y="1.67" class="f">user@pc</text><text x="7.014" y="1.67" class="g">:</text><text x="8.016" y="1.67" class="h">~</text><text x="9.018" y="1.67" class="g">$</text><text x="11.022" y="1.67" class="g">node</text><text x="16.032" y="1.67" class="g">remark42-m</text></svg><svg x="1360"><use xlink:href="#a"/><use xlink:href="#b" x="26.996"/><text y="1.67" class="f">user@pc</text><text x="7.014" y="1.67" class="g">:</text><text x="8.016" y="1.67" class="h">~</text><text x="9.018" y="1.67" class="g">$</text><text x="11.022" y="1.67" class="g">node</text><text x="16.032" y="1.67" class="g">remark42-mo</text></svg><svg x="1440"><use xlink:href="#a"/><use xlink:href="#b" x="27.996"/><text y="1.67" class="f">user@pc</text><text x="7.014" y="1.67" class="g">:</text><text x="8.016" y="1.67" class="h">~</text><text x="9.018" y="1.67" class="g">$</text><text x="11.022" y="1.67" class="g">node</text><text x="16.032" y="1.67" class="g">remark42-mon</text></svg><svg x="1520"><use xlink:href="#a"/><use xlink:href="#b" x="28.996"/><text y="1.67" class="f">user@pc</text><text x="7.014" y="1.67" class="g">:</text><text x="8.016" y="1.67" class="h">~</text><text x="9.018" y="1.67" class="g">$</text><text x="11.022" y="1.67" class="g">node</text><text x="16.032" y="1.67" class="g">remark42-mong</text></svg><svg x="1600"><use xlink:href="#a"/><use xlink:href="#b" x="29.996"/><text y="1.67" class="f">user@pc</text><text x="7.014" y="1.67" class="g">:</text><text x="8.016" y="1.67" class="h">~</text><text x="9.018" y="1.67" class="g">$</text><text x="11.022" y="1.67" class="g">node</text><text x="16.032" y="1.67" class="g">remark42-mongo</text></svg><svg x="1680"><use xlink:href="#a"/><use xlink:href="#b" x="30.996"/><text y="1.67" class="f">user@pc</text><text x="7.014" y="1.67" class="g">:</text><text x="8.016" y="1.67" class="h">~</text><text x="9.018" y="1.67" class="g">$</text><text x="11.022" y="1.67" class="g">node</text><text x="16.032" y="1.67" class="g">remark42-mongod</text></svg><svg x="1760"><use xlink:href="#a"/><use xlink:href="#b" x="31.996"/><text y="1.67" class="f">user@pc</text><text x="7.014" y="1.67" class="g">:</text><text x="8.016" y="1.67" class="h">~</text><text x="9.018" y="1.67" class="g">$</text><text x="11.022" y="1.67" class="g">node</text><text x="16.032" y="1.67" class="g">remark42-mongodb</text></svg><svg x="1840"><use xlink:href="#a"/><use xlink:href="#b" x="32.996"/><text y="1.67" class="f">user@pc</text><text x="7.014" y="1.67" class="g">:</text><text x="8.016" y="1.67" class="h">~</text><text x="9.018" y="1.67" class="g">$</text><text x="11.022" y="1.67" class="g">node</text><text x="16.032" y="1.67" class="g">remark42-mongodb.</text></svg><svg x="1920"><use xlink:href="#a"/><use xlink:href="#b" x="33.996"/><text y="1.67" class="f">user@pc</text><text x="7.014" y="1.67" class="g">:</text><text x="8.016" y="1.67" class="h">~</text><text x="9.018" y="1.67" class="g">$</text><text x="11.022" y="1.67" class="g">node</text><text x="16.032" y="1.67" class="g">remark42-mongodb.j</text></svg><svg x="2000"><use xlink:href="#a"/><use xlink:href="#b" x="34.996"/><use xlink:href="#3"/></svg><svg x="2080"><use xlink:href="#a"/><use xlink:href="#b" x="35.996"/><use xlink:href="#3"/></svg><svg x="2160"><use xlink:href="#a"/><use xlink:href="#b" x="36.996"/><text y="1.67" class="f">user@pc</text><text x="7.014" y="1.67" class="g">:</text><text x="8.016" y="1.67" class="h">~</text><text x="9.018" y="1.67" class="g">$</text><text x="11.022" y="1.67" class="g">node</text><text x="16.032" y="1.67" class="g">remark42-mongodb.js</text><text x="36.072" y="1.67" class="g">s</text></svg><svg x="2240"><use xlink:href="#a"/><use xlink:href="#b" x="37.996"/><text y="1.67" class="f">user@pc</text><text x="7.014" y="1.67" class="g">:</text><text x="8.016" y="1.67" class="h">~</text><text x="9.018" y="1.67" class="g">$</text><text x="11.022" y="1.67" class="g">node</text><text x="16.032" y="1.67" class="g">remark42-mongodb.js</text><text x="36.072" y="1.67" class="g">si</text></svg><svg x="2320"><use xlink:href="#a"/><use xlink:href="#b" x="38.996"/><text y="1.67" class="f">user@pc</text><text x="7.014" y="1.67" class="g">:</text><text x="8.016" y="1.67" class="h">~</text><text x="9.018" y="1.67" class="g">$</text><text x="11.022" y="1.67" class="g">node</text><text x="16.032" y="1.67" class="g">remark42-mongodb.js</text><text x="36.072" y="1.67" class="g">sit</text></svg><svg x="2400"><use xlink:href="#a"/><use xlink:href="#b" x="39.996"/><text y="1.67" class="f">user@pc</text><text x="7.014" y="1.67" class="g">:</text><text x="8.016" y="1.67" class="h">~</text><text x="9.018" y="1.67" class="g">$</text><text x="11.022" y="1.67" class="g">node</text><text x="16.032" y="1.67" class="g">remark42-mongodb.js</text><text x="36.072" y="1.67" class="g">site</text></svg><svg x="2480"><use xlink:href="#a"/><use xlink:href="#b" x="40.996"/><use xlink:href="#4"/></svg><svg x="2560"><use xlink:href="#a"/><use xlink:href="#b" x="41.996"/><use xlink:href="#4"/></svg><svg x="2640"><use xlink:href="#a"/><use xlink:href="#b" x="42.996"/><text y="1.67" class="f">user@pc</text><text x="7.014" y="1.67" class="g">:</text><text x="8.016" y="1.67" class="h">~</text><text x="9.018" y="1.67" class="g">$</text><text x="11.022" y="1.67" class="g">node</text><text x="16.032" y="1.67" class="g">remark42-mongodb.js</text><text x="36.072" y="1.67" class="g">sites</text><text x="42.084" y="1.67" class="g">l</text></svg><svg x="2720"><use xlink:href="#a"/><use xlink:href="#b" x="43.996"/><text y="1.67" class="f">user@pc</text><text x="7.014" y="1.67" class="g">:</text><text x="8.016" y="1.67" class="h">~</text><text x="9.018" y="1.67" class="g">$</text><text x="11.022" y="1.67" class="g">node</text><text x="16.032" y="1.67" class="g">remark42-mongodb.js</text><text x="36.072" y="1.67" class="g">sites</text><text x="42.084" y="1.67" class="g">li</text></svg><svg x="2800"><use xlink:href="#a"/><use xlink:href="#b" x="44.996"/><text y="1.67" class="f">user@pc</text><text x="7.014" y="1.67" class="g">:</text><text x="8.016" y="1.67" class="h">~</text><text x="9.018" y="1.67" class="g">$</text><text x="11.022" y="1.67" class="g">node</text><text x="16.032" y="1.67" class="g">remark42-mongodb.js</text><text x="36.072" y="1.67" class="g">sites</text><text x="42.084" y="1.67" class="g">lis</text></svg><svg x="2880"><use xlink:href="#a"/><use xlink:href="#b" x="45.996"/><use xlink:href="#5"/></svg><svg x="2960"><use xlink:href="#a"/><use xlink:href="#b" x="-.004" y="2.146"/><use xlink:href="#5"/></svg><svg x="3040"><use xlink:href="#a"/><use xlink:href="#b" x="-.004" y="4.317"/><use xlink:href="#5"/><use xlink:href="#6" y="2.171"/></svg><svg x="3120"><use xlink:href="#a"/><use xlink:href="#b" x="-.004" y="6.488"/><use xlink:href="#5"/><use xlink:href="#6" y="2.171"/><use xlink:href="#7" y="4.342"/></svg><svg x="3200"><use xlink:href="#a"/><use xlink:href="#b" x="-.004" y="19.514"/><use xlink:href="#5"/><use xlink:href="#6" y="2.171"/><use xlink:href="#7" y="4.342"/><use xlink:href="#8" y="6.513"/><use xlink:href="#9" y="8.684"/><use xlink:href="#10" y="10.855"/><use xlink:href="#11" y="13.026"/><use xlink:href="#12" y="15.197"/><use xlink:href="#13" y="17.368"/></svg><svg x="3280"><use xlink:href="#a"/><use xlink:href="#b" x="10.996" y="19.514"/><use xlink:href="#5"/><use xlink:href="#6" y="2.171"/><use xlink:href="#7" y="4.342"/><use xlink:href="#8" y="6.513"/><use xlink:href="#9" y="8.684"/><use xlink:href="#10" y="10.855"/><use xlink:href="#11" y="13.026"/><use xlink:href="#12" y="15.197"/><use xlink:href="#13" y="17.368"/><use xlink:href="#1" y="19.539"/></svg><svg x="3360"><use xlink:href="#a"/><use xlink:href="#b" x="-.004" y="21.685"/><use xlink:href="#5"/><use xlink:href="#6" y="2.171"/><use xlink:href="#7" y="4.342"/><use xlink:href="#8" y="6.513"/><use xlink:href="#9" y="8.684"/><use xlink:href="#10" y="10.855"/><use xlink:href="#11" y="13.026"/><use xlink:href="#12" y="15.197"/><use xlink:href="#13" y="17.368"/><use xlink:href="#14" y="19.539"/></svg><svg x="3440"><use xlink:href="#a"/><use xlink:href="#b" x="-.004" y="23.856"/><use xlink:href="#5"/><use xlink:href="#6" y="2.171"/><use xlink:href="#7" y="4.342"/><use xlink:href="#8" y="6.513"/><use xlink:href="#9" y="8.684"/><use xlink:href="#10" y="10.855"/><use xlink:href="#11" y="13.026"/><use xlink:href="#12" y="15.197"/><use xlink:href="#13" y="17.368"/><use xlink:href="#14" y="19.539"/></svg></svg></g></g></svg></svg>